<?xml version="1.0" encoding="UTF-8"?>
<svg id="Ebene_1" xmlns="http://www.w3.org/2000/svg" version="1.1" viewBox="0 0 373.93 369.43">
  <!-- Generator: Adobe Illustrator 30.2.1, SVG Export Plug-In . SVG Version: 2.1.1 Build 1)  -->
  <defs>
    <style>
      .st0 {
        stroke-dasharray: 5 5 5;
      }

      .st0, .st1 {
        fill: none;
        stroke-miterlimit: 10;
      }

      .st0, .st1, .st2 {
        stroke: #000;
      }

      .st3 {
        fill: #f6ad60;
      }

      .st4 {
        fill: #ef8356;
      }

      .st1 {
        stroke-dasharray: 5.41 5.41 5.41 5.41 5.41 5.41;
      }

      .st5 {
        isolation: isolate;
      }

      .st2 {
        stroke-linecap: round;
        stroke-linejoin: round;
      }

      .st6 {
        fill: #e9584b;
      }
    </style>
  </defs>
  <polygon class="st3" points="131.89 1.43 105.89 1.43 105.89 117.43 117.24 282.43 111.26 369.43 126.53 369.43 120.55 282.43 131.89 117.43 131.89 1.43"/>
  <polygon class="st4" points="110.19 179.93 117.24 282.43 111.26 369.43 126.53 369.43 120.55 282.43 127.6 179.93 110.19 179.93"/>
  <path d="M118.89,118.18c17.99,0,36.24,3.95,54.25,11.74v11.76h-108.5v-11.76c18.01-7.79,36.26-11.74,54.25-11.74M118.89,117.43c-18.33,0-36.67,4-55,12v13h110v-13c-18.33-8-36.67-12-55-12h0Z"/>
  <path d="M237.04,259.18v47.5H.75v-47.5h236.29M237.79,258.43H0v49h237.79v-49h0Z"/>
  <g class="st5">
    <g class="st5">
      <path d="M286.9,15.12V2.88c0-.12.06-.18.18-.18h1.37c.12,0,.18.06.18.18v12.24c0,.12-.06.18-.18.18h-1.37c-.12,0-.18-.06-.18-.18Z"/>
      <path d="M296.39,6.38c.55.26.97.62,1.26,1.08s.44.99.44,1.58v6.08c0,.12-.06.18-.18.18h-1.37c-.12,0-.18-.06-.18-.18v-.65c0-.06-.03-.07-.09-.04-.31.32-.69.57-1.14.75-.45.17-.95.26-1.5.26-.89,0-1.62-.22-2.21-.67-.58-.45-.87-1.13-.87-2.04s.33-1.67.98-2.21c.65-.53,1.57-.8,2.75-.8h2.02s.07-.02.07-.07v-.49c0-.53-.15-.94-.46-1.23-.31-.29-.77-.44-1.39-.44-.5,0-.92.1-1.23.3-.32.2-.51.46-.58.8-.04.12-.11.17-.22.16l-1.46-.2c-.12-.02-.17-.07-.16-.14.1-.71.47-1.29,1.13-1.74s1.49-.67,2.48-.67c.73,0,1.37.13,1.92.39ZM295.67,13.48c.47-.34.7-.76.7-1.28v-1.06s-.02-.07-.07-.07h-1.69c-.71,0-1.27.14-1.69.41-.42.28-.63.66-.63,1.15,0,.44.16.78.48,1.01.32.23.73.34,1.25.34.64,0,1.19-.17,1.66-.5Z"/>
      <path d="M301.76,15.08c-.55-.22-.97-.51-1.27-.89-.3-.38-.45-.79-.45-1.25v-.2c0-.12.06-.18.18-.18h1.3c.12,0,.18.06.18.18v.09c0,.34.18.63.55.88s.83.38,1.4.38.98-.12,1.31-.35c.34-.23.5-.53.5-.89s-.16-.61-.47-.78c-.31-.17-.82-.36-1.51-.55-.68-.19-1.26-.39-1.72-.58s-.85-.48-1.17-.85c-.32-.37-.48-.84-.48-1.41,0-.8.32-1.44.95-1.92.63-.47,1.47-.71,2.51-.71.7,0,1.31.11,1.84.33.53.22.95.53,1.23.93.29.4.43.84.43,1.33v.05c0,.12-.06.18-.18.18h-1.26c-.12,0-.18-.06-.18-.18v-.05c0-.35-.17-.64-.51-.87-.34-.23-.81-.35-1.39-.35-.53,0-.96.1-1.29.31s-.5.48-.5.83.16.61.48.79c.32.18.83.37,1.54.58.7.19,1.28.38,1.74.57.46.19.86.46,1.18.83.32.37.49.84.49,1.43,0,.82-.32,1.46-.96,1.94-.64.48-1.5.72-2.57.72-.72,0-1.35-.11-1.9-.32Z"/>
      <path d="M316.67,11.23c0,.12-.06.18-.18.18h-5.74s-.07.02-.07.07c0,.41.04.72.11.94.13.48.4.85.8,1.12.4.27.91.41,1.52.41.89,0,1.57-.37,2.05-1.1.06-.12.14-.14.23-.05l1.03.68c.08.07.1.15.05.23-.34.54-.81.97-1.43,1.28-.62.31-1.32.47-2.1.47-.88,0-1.61-.19-2.21-.58-.6-.38-1.05-.93-1.35-1.64-.29-.71-.43-1.57-.43-2.57,0-.88.07-1.54.2-2,.22-.83.65-1.48,1.3-1.96.65-.48,1.43-.72,2.36-.72,1.21,0,2.12.3,2.72.91.6.61.97,1.5,1.1,2.67.05.49.07,1.04.05,1.66ZM311.52,7.88c-.34.26-.56.6-.68,1.04-.08.26-.14.6-.16,1.01,0,.05.02.07.07.07h4.12s.07-.02.07-.07c-.02-.4-.06-.69-.11-.88-.12-.47-.36-.84-.71-1.12-.35-.28-.8-.42-1.32-.42s-.94.13-1.28.39Z"/>
      <path d="M323.91,6.28c.08.04.11.11.09.22l-.29,1.35c-.01.11-.08.14-.22.11-.2-.08-.44-.13-.72-.13l-.25.02c-.56.02-1.03.22-1.39.58s-.55.84-.55,1.43v5.26c0,.12-.06.18-.18.18h-1.37c-.12,0-.18-.06-.18-.18V6.32c0-.12.06-.18.18-.18h1.37c.12,0,.18.06.18.18v.95s0,.06.03.06c.02,0,.03,0,.04-.03.54-.84,1.28-1.26,2.21-1.26.38,0,.73.08,1.04.23Z"/>
    </g>
    <g class="st5">
      <path d="M336.82,10.69c0,.9-.11,1.67-.34,2.3-.26.78-.68,1.38-1.25,1.81s-1.29.64-2.15.64c-.42,0-.81-.08-1.17-.25-.36-.17-.67-.4-.94-.7-.02-.02-.04-.03-.06-.02-.02.01-.03.03-.03.05v.59c0,.12-.06.18-.18.18h-1.37c-.12,0-.18-.06-.18-.18V2.88c0-.12.06-.18.18-.18h1.37c.12,0,.18.06.18.18v4.01s0,.04.03.05c.02.01.04,0,.06-.02.26-.3.58-.53.95-.69.37-.16.75-.24,1.16-.24.9,0,1.64.22,2.21.67.58.44.99,1.06,1.24,1.85.19.61.29,1.34.29,2.18ZM335.07,10.73c0-.98-.19-1.78-.58-2.38-.35-.58-.88-.86-1.6-.86-.67,0-1.18.31-1.53.92-.31.55-.47,1.32-.47,2.3s.14,1.74.43,2.27c.36.65.89.97,1.58.97.79,0,1.36-.33,1.71-.99.3-.56.45-1.31.45-2.23Z"/>
    </g>
    <g class="st5">
      <path d="M346.44,11.23c0,.12-.06.18-.18.18h-5.74s-.07.02-.07.07c0,.41.04.72.11.94.13.48.4.85.8,1.12.4.27.91.41,1.52.41.89,0,1.57-.37,2.05-1.1.06-.12.14-.14.23-.05l1.03.68c.08.07.1.15.05.23-.34.54-.81.97-1.43,1.28-.62.31-1.32.47-2.1.47-.88,0-1.61-.19-2.21-.58-.6-.38-1.05-.93-1.35-1.64-.29-.71-.43-1.57-.43-2.57,0-.88.07-1.54.2-2,.22-.83.65-1.48,1.3-1.96.65-.48,1.43-.72,2.36-.72,1.21,0,2.12.3,2.72.91.6.61.97,1.5,1.1,2.67.05.49.07,1.04.05,1.66ZM341.29,7.88c-.34.26-.56.6-.68,1.04-.08.26-.14.6-.16,1.01,0,.05.02.07.07.07h4.12s.07-.02.07-.07c-.02-.4-.06-.69-.11-.88-.12-.47-.36-.84-.71-1.12-.35-.28-.8-.42-1.32-.42s-.94.13-1.28.39Z"/>
    </g>
    <g class="st5">
      <path d="M353.79,6.38c.55.26.97.62,1.26,1.08.29.46.44.99.44,1.58v6.08c0,.12-.06.18-.18.18h-1.37c-.12,0-.18-.06-.18-.18v-.65c0-.06-.03-.07-.09-.04-.31.32-.69.57-1.14.75-.45.17-.95.26-1.5.26-.89,0-1.62-.22-2.21-.67-.58-.45-.87-1.13-.87-2.04s.33-1.67.98-2.21c.65-.53,1.57-.8,2.74-.8h2.02s.07-.02.07-.07v-.49c0-.53-.15-.94-.46-1.23-.31-.29-.77-.44-1.39-.44-.5,0-.92.1-1.23.3-.32.2-.51.46-.59.8-.04.12-.11.17-.22.16l-1.46-.2c-.12-.02-.17-.07-.16-.14.1-.71.47-1.29,1.13-1.74.66-.45,1.49-.67,2.48-.67.73,0,1.37.13,1.92.39ZM353.07,13.48c.47-.34.7-.76.7-1.28v-1.06s-.02-.07-.07-.07h-1.69c-.71,0-1.27.14-1.69.41-.42.28-.63.66-.63,1.15,0,.44.16.78.48,1.01.32.23.74.34,1.25.34.64,0,1.19-.17,1.66-.5Z"/>
      <path d="M369.52,6.83c.53.55.79,1.3.79,2.28v6.01c0,.12-.06.18-.18.18h-1.35c-.12,0-.18-.06-.18-.18v-5.65c0-.6-.16-1.08-.49-1.43-.33-.35-.77-.53-1.32-.53s-1,.17-1.35.52c-.35.35-.52.82-.52,1.4v5.69c0,.12-.06.18-.18.18h-1.35c-.12,0-.18-.06-.18-.18v-5.65c0-.6-.17-1.08-.5-1.43-.33-.35-.77-.53-1.32-.53s-.99.17-1.32.52c-.33.35-.49.82-.49,1.4v5.69c0,.12-.06.18-.18.18h-1.37c-.12,0-.18-.06-.18-.18V6.32c0-.12.06-.18.18-.18h1.37c.12,0,.18.06.18.18v.61s0,.04.03.05c.02.01.04,0,.06-.02.53-.64,1.3-.95,2.3-.95.61,0,1.13.12,1.57.35.43.23.77.58,1.01,1.03.04.05.07.05.11,0,.29-.47.67-.82,1.14-1.04.47-.23,1-.34,1.58-.34.91,0,1.63.27,2.16.82Z"/>
    </g>
  </g>
  <g class="st5">
    <g class="st5">
      <path d="M286.9,138.15v-12.24c0-.12.06-.18.18-.18h1.37c.12,0,.18.06.18.18v12.24c0,.12-.06.18-.18.18h-1.37c-.12,0-.18-.06-.18-.18Z"/>
      <path d="M298.6,134.26c0,.12-.06.18-.18.18h-5.74s-.07.02-.07.07c0,.41.04.72.11.94.13.48.4.85.8,1.12.4.27.91.41,1.52.41.89,0,1.57-.37,2.05-1.1.06-.12.14-.14.23-.05l1.03.68c.08.07.1.15.05.23-.34.54-.81.97-1.43,1.28-.62.31-1.32.47-2.1.47-.88,0-1.61-.19-2.21-.58-.6-.38-1.05-.93-1.35-1.64-.29-.71-.43-1.57-.43-2.57,0-.88.07-1.54.2-2,.22-.83.65-1.48,1.3-1.96.65-.48,1.43-.72,2.36-.72,1.21,0,2.12.3,2.72.91.6.61.97,1.5,1.1,2.67.05.49.07,1.04.05,1.66ZM293.45,130.91c-.34.26-.56.6-.68,1.04-.08.26-.14.6-.16,1.01,0,.05.02.07.07.07h4.12s.07-.02.07-.07c-.02-.4-.06-.69-.11-.88-.12-.47-.36-.84-.71-1.12-.35-.28-.8-.42-1.32-.42s-.94.13-1.28.39Z"/>
      <path d="M307.2,129.9c.58.57.86,1.34.86,2.31v5.94c0,.12-.06.18-.18.18h-1.37c-.12,0-.18-.06-.18-.18v-5.6c0-.6-.17-1.09-.52-1.46-.35-.37-.81-.56-1.39-.56s-1.03.19-1.39.56c-.36.37-.54.85-.54,1.44v5.62c0,.12-.06.18-.18.18h-1.37c-.12,0-.18-.06-.18-.18v-8.8c0-.12.06-.18.18-.18h1.37c.12,0,.18.06.18.18v.65s0,.04.03.05c.02.01.03,0,.04-.02.52-.66,1.28-.99,2.29-.99s1.76.29,2.34.86Z"/>
      <path d="M311.86,138.11c-.55-.22-.97-.51-1.27-.89-.3-.38-.45-.79-.45-1.25v-.2c0-.12.06-.18.18-.18h1.3c.12,0,.18.06.18.18v.09c0,.34.18.63.55.88s.83.38,1.4.38.98-.12,1.31-.35c.34-.23.5-.53.5-.89s-.16-.61-.47-.78c-.31-.17-.82-.36-1.51-.55-.68-.19-1.26-.39-1.72-.58s-.85-.48-1.17-.85c-.32-.37-.48-.84-.48-1.41,0-.8.32-1.44.95-1.92.63-.47,1.47-.71,2.51-.71.7,0,1.31.11,1.84.33.53.22.95.53,1.23.93.29.4.43.84.43,1.33v.05c0,.12-.06.18-.18.18h-1.26c-.12,0-.18-.06-.18-.18v-.05c0-.35-.17-.64-.51-.87-.34-.23-.81-.35-1.39-.35-.53,0-.96.1-1.29.31s-.5.48-.5.83.16.61.48.79c.32.18.83.37,1.54.58.7.19,1.28.38,1.74.57.46.19.86.46,1.18.83.32.37.49.84.49,1.43,0,.82-.32,1.46-.96,1.94-.64.48-1.5.72-2.57.72-.72,0-1.35-.11-1.9-.32Z"/>
    </g>
  </g>
  <g class="st5">
    <g class="st5">
      <path d="M298.58,281.59c.53.55.79,1.3.79,2.28v6.01c0,.12-.06.18-.18.18h-1.35c-.12,0-.18-.06-.18-.18v-5.65c0-.6-.17-1.08-.5-1.43-.33-.35-.77-.53-1.32-.53s-1,.17-1.35.52-.52.82-.52,1.4v5.69c0,.12-.06.18-.18.18h-1.35c-.12,0-.18-.06-.18-.18v-5.65c0-.6-.17-1.08-.5-1.43-.33-.35-.77-.53-1.32-.53s-.99.17-1.32.52c-.33.35-.5.82-.5,1.4v5.69c0,.12-.06.18-.18.18h-1.37c-.12,0-.18-.06-.18-.18v-8.8c0-.12.06-.18.18-.18h1.37c.12,0,.18.06.18.18v.61s0,.04.03.05c.02.01.04,0,.06-.02.53-.64,1.3-.95,2.3-.95.61,0,1.13.12,1.57.35.43.23.77.58,1.01,1.03.04.05.07.05.11,0,.29-.47.67-.82,1.14-1.04.47-.23,1-.34,1.58-.34.91,0,1.63.27,2.16.82Z"/>
    </g>
    <g class="st5">
      <path d="M307.04,281.14c.55.26.97.62,1.26,1.08s.44.99.44,1.58v6.08c0,.12-.06.18-.18.18h-1.37c-.12,0-.18-.06-.18-.18v-.65c0-.06-.03-.07-.09-.04-.31.32-.69.57-1.14.75-.45.17-.95.26-1.5.26-.89,0-1.62-.22-2.21-.67-.58-.45-.87-1.13-.87-2.04s.33-1.67.98-2.21c.65-.53,1.57-.8,2.75-.8h2.02s.07-.02.07-.07v-.49c0-.53-.15-.94-.46-1.23-.31-.29-.77-.44-1.39-.44-.5,0-.92.1-1.23.3-.32.2-.51.46-.58.8-.04.12-.11.17-.22.16l-1.46-.2c-.12-.02-.17-.07-.16-.14.1-.71.47-1.29,1.13-1.74s1.49-.67,2.48-.67c.73,0,1.37.13,1.92.39ZM306.31,288.24c.47-.34.7-.76.7-1.28v-1.06s-.02-.07-.07-.07h-1.69c-.71,0-1.27.14-1.69.41-.42.28-.63.66-.63,1.15,0,.44.16.78.48,1.01.32.23.73.34,1.25.34.64,0,1.19-.17,1.66-.5Z"/>
    </g>
    <g class="st5">
      <path d="M315.29,282.32h-1.94s-.07.02-.07.07v4.77c0,.5.11.87.34,1.09.23.22.58.33,1.06.33h.52c.12,0,.18.06.18.18v1.12c0,.12-.06.18-.18.18-.38.02-.66.04-.83.04-.91,0-1.6-.17-2.06-.5-.46-.33-.69-.94-.69-1.83v-5.38s-.02-.07-.07-.07h-1.1c-.12,0-.18-.06-.18-.18v-1.06c0-.12.06-.18.18-.18h1.1s.07-.02.07-.07v-2.12c0-.12.06-.18.18-.18h1.3c.12,0,.18.06.18.18v2.12s.02.07.07.07h1.94c.12,0,.18.06.18.18v1.06c0,.12-.06.18-.18.18Z"/>
    </g>
    <g class="st5">
      <path d="M324.84,285.99c0,.12-.06.18-.18.18h-5.74s-.07.02-.07.07c0,.41.04.72.11.94.13.48.4.85.8,1.12.4.27.91.41,1.52.41.89,0,1.57-.37,2.05-1.1.06-.12.14-.14.23-.05l1.03.68c.08.07.1.15.05.23-.34.54-.81.97-1.43,1.28-.62.31-1.32.47-2.1.47-.88,0-1.61-.19-2.21-.58-.6-.38-1.05-.93-1.35-1.64-.29-.71-.43-1.57-.43-2.57,0-.88.07-1.54.2-2,.22-.83.65-1.48,1.3-1.96.65-.48,1.43-.72,2.36-.72,1.21,0,2.12.3,2.72.91.6.61.97,1.5,1.1,2.67.05.49.07,1.04.05,1.66ZM319.69,282.63c-.34.26-.56.6-.68,1.04-.08.26-.14.6-.16,1.01,0,.05.02.07.07.07h4.12s.07-.02.07-.07c-.02-.4-.06-.69-.11-.88-.12-.47-.36-.84-.71-1.12s-.79-.42-1.32-.42-.94.13-1.28.39Z"/>
      <path d="M332.08,281.04c.08.04.11.11.09.22l-.29,1.35c-.01.11-.08.14-.22.11-.2-.08-.44-.13-.72-.13l-.25.02c-.56.02-1.03.22-1.4.58-.37.37-.55.84-.55,1.43v5.26c0,.12-.06.18-.18.18h-1.37c-.12,0-.18-.06-.18-.18v-8.8c0-.12.06-.18.18-.18h1.37c.12,0,.18.06.18.18v.95s0,.06.03.06c.02,0,.03,0,.04-.03.54-.84,1.28-1.26,2.21-1.26.38,0,.73.08,1.04.23Z"/>
      <path d="M333.91,279.13c-.22-.22-.32-.49-.32-.83s.11-.61.32-.83c.22-.22.49-.32.83-.32s.61.11.83.32c.22.22.32.49.32.83s-.11.61-.32.83c-.22.22-.49.32-.83.32s-.61-.11-.83-.32ZM333.84,289.86v-8.78c0-.12.06-.18.18-.18h1.37c.12,0,.18.06.18.18v8.78c0,.12-.06.18-.18.18h-1.37c-.12,0-.18-.06-.18-.18Z"/>
      <path d="M343.55,281.14c.55.26.97.62,1.26,1.08s.44.99.44,1.58v6.08c0,.12-.06.18-.18.18h-1.37c-.12,0-.18-.06-.18-.18v-.65c0-.06-.03-.07-.09-.04-.31.32-.69.57-1.14.75-.45.17-.95.26-1.5.26-.89,0-1.62-.22-2.21-.67-.58-.45-.87-1.13-.87-2.04s.33-1.67.98-2.21c.65-.53,1.57-.8,2.75-.8h2.02s.07-.02.07-.07v-.49c0-.53-.15-.94-.46-1.23-.31-.29-.77-.44-1.39-.44-.5,0-.92.1-1.23.3-.32.2-.51.46-.58.8-.04.12-.11.17-.22.16l-1.46-.2c-.12-.02-.17-.07-.16-.14.1-.71.47-1.29,1.13-1.74s1.49-.67,2.48-.67c.73,0,1.37.13,1.92.39ZM342.82,288.24c.47-.34.7-.76.7-1.28v-1.06s-.02-.07-.07-.07h-1.69c-.71,0-1.27.14-1.69.41-.42.28-.63.66-.63,1.15,0,.44.16.78.48,1.01.32.23.73.34,1.25.34.64,0,1.19-.17,1.66-.5Z"/>
      <path d="M347.59,289.88v-12.24c0-.12.06-.18.18-.18h1.37c.12,0,.18.06.18.18v12.24c0,.12-.06.18-.18.18h-1.37c-.12,0-.18-.06-.18-.18Z"/>
    </g>
  </g>
  <g class="st5">
    <g class="st5">
      <path d="M289.71,218.44c-.22.23-.32.66-.32,1.3v.22s.02.07.07.07h1.89c.12,0,.18.06.18.18v1.22c0,.12-.06.18-.18.18h-1.89s-.07.02-.07.07v7.33c0,.12-.06.18-.18.18h-1.37c-.12,0-.18-.06-.18-.18v-7.33s-.02-.07-.07-.07h-1.21c-.12,0-.18-.06-.18-.18v-1.22c0-.12.06-.18.18-.18h1.21s.07-.02.07-.07v-.32c0-.79.09-1.4.28-1.84.19-.43.5-.74.95-.93.44-.19,1.07-.28,1.87-.28h.61c.12,0,.18.06.18.18v1.15c0,.12-.06.18-.18.18h-.43c-.6,0-1.01.11-1.22.34Z"/>
    </g>
    <g class="st5">
      <path d="M294.19,228.66c-.66-.45-1.12-1.08-1.39-1.88-.22-.65-.32-1.38-.32-2.2s.1-1.57.31-2.16c.26-.79.73-1.41,1.39-1.86s1.45-.67,2.36-.67c.86,0,1.62.22,2.26.67.64.45,1.1,1.07,1.38,1.84.22.61.32,1.33.32,2.16s-.11,1.58-.32,2.21c-.26.8-.72,1.43-1.37,1.88-.65.45-1.41.67-2.29.67s-1.66-.22-2.32-.67ZM297.77,227.44c.36-.27.62-.65.77-1.14.13-.46.2-1.02.2-1.69s-.06-1.23-.18-1.67c-.16-.49-.41-.87-.77-1.14-.36-.27-.8-.4-1.31-.4s-.92.13-1.28.4c-.36.27-.62.65-.77,1.14-.13.42-.2.98-.2,1.67s.07,1.26.2,1.69c.14.49.4.87.77,1.14.37.27.81.41,1.32.41.48,0,.9-.14,1.26-.41Z"/>
      <path d="M304.09,228.64c-.65-.46-1.09-1.09-1.33-1.88-.18-.55-.27-1.28-.27-2.18,0-.83.09-1.55.27-2.18.24-.77.69-1.38,1.34-1.84s1.43-.68,2.33-.68,1.69.23,2.36.68c.67.46,1.11,1.03,1.31,1.73.07.19.12.39.14.59,0,.1-.05.16-.16.18l-1.35.2h-.04c-.08,0-.14-.05-.18-.16l-.05-.29c-.1-.41-.33-.75-.7-1.03-.37-.28-.82-.41-1.35-.41s-.95.14-1.31.41c-.36.28-.59.64-.7,1.1-.11.43-.16,1-.16,1.71s.05,1.26.16,1.69c.12.48.36.86.71,1.13.35.28.79.41,1.31.41s.98-.14,1.36-.41c.38-.28.62-.64.71-1.08.01-.01.02-.03,0-.04,0-.02,0-.03,0-.04v-.07c.04-.1.1-.13.2-.11l1.35.22c.1.02.14.07.14.14v.07c0,.11-.03.24-.09.4-.2.73-.64,1.32-1.31,1.76-.67.44-1.46.67-2.36.67s-1.69-.23-2.34-.69Z"/>
      <path d="M317.86,220.03h1.35c.12,0,.18.06.18.18v8.8c0,.12-.06.18-.18.18h-1.35c-.12,0-.18-.06-.18-.18v-.67s0-.04-.03-.04c-.02,0-.04,0-.06.03-.48.66-1.22.99-2.21.99-.59,0-1.13-.11-1.63-.34s-.9-.56-1.2-1.01c-.3-.44-.45-.98-.45-1.62v-6.14c0-.12.06-.18.18-.18h1.35c.12,0,.18.06.18.18v5.6c0,.62.17,1.12.5,1.48.33.36.79.54,1.39.54s1.08-.18,1.44-.55.54-.86.54-1.47v-5.6c0-.12.06-.18.18-.18Z"/>
      <path d="M323.23,228.97c-.55-.22-.97-.51-1.27-.89-.3-.38-.45-.79-.45-1.25v-.2c0-.12.06-.18.18-.18h1.3c.12,0,.18.06.18.18v.09c0,.34.18.63.55.88s.83.38,1.39.38.98-.12,1.31-.35c.34-.23.5-.53.5-.89s-.16-.61-.47-.78c-.31-.17-.82-.36-1.51-.55-.68-.19-1.26-.39-1.72-.58s-.85-.48-1.17-.85-.48-.84-.48-1.41c0-.8.31-1.44.94-1.92.63-.47,1.47-.71,2.51-.71.7,0,1.31.11,1.84.33s.95.53,1.23.93c.29.4.43.84.43,1.33v.05c0,.12-.06.18-.18.18h-1.26c-.12,0-.18-.06-.18-.18v-.05c0-.35-.17-.64-.51-.87-.34-.23-.81-.35-1.4-.35-.53,0-.96.1-1.29.31s-.5.48-.5.83.16.61.48.79c.32.18.83.37,1.54.58.7.19,1.27.38,1.74.57.46.19.85.46,1.18.83.32.37.49.84.49,1.43,0,.82-.32,1.46-.96,1.94-.64.48-1.5.72-2.56.72-.72,0-1.35-.11-1.9-.32Z"/>
    </g>
    <g class="st5">
      <path d="M342.06,224.64c0,.84-.1,1.57-.29,2.18-.25.8-.67,1.42-1.24,1.86-.58.44-1.31.66-2.21.66-.41,0-.79-.08-1.16-.24-.37-.16-.68-.39-.94-.69-.02-.02-.04-.03-.06-.02-.02.01-.03.03-.03.05v4.01c0,.12-.06.18-.18.18h-1.37c-.12,0-.18-.06-.18-.18v-12.24c0-.12.06-.18.18-.18h1.37c.12,0,.18.06.18.18v.59s0,.04.03.05c.02.01.04,0,.06-.02.26-.3.58-.53.94-.7.36-.17.75-.25,1.17-.25.86,0,1.58.21,2.15.64s.99,1.03,1.25,1.81c.23.65.34,1.42.34,2.3ZM340.31,224.6c0-.92-.15-1.67-.45-2.23-.35-.66-.92-.99-1.71-.99-.7,0-1.22.32-1.58.97-.29.52-.43,1.27-.43,2.27s.16,1.78.47,2.3c.35.61.86.92,1.53.92.72,0,1.25-.29,1.6-.86.38-.58.58-1.37.58-2.38Z"/>
    </g>
    <g class="st5">
      <path d="M345.63,228.66c-.66-.45-1.12-1.08-1.39-1.88-.22-.65-.32-1.38-.32-2.2s.1-1.57.31-2.16c.26-.79.73-1.41,1.39-1.86.66-.45,1.45-.67,2.36-.67.86,0,1.62.22,2.26.67.64.45,1.1,1.07,1.38,1.84.22.61.32,1.33.32,2.16s-.11,1.58-.32,2.21c-.26.8-.72,1.43-1.37,1.88-.65.45-1.41.67-2.29.67s-1.66-.22-2.32-.67ZM349.21,227.44c.36-.27.62-.65.77-1.14.13-.46.2-1.02.2-1.69s-.06-1.23-.18-1.67c-.16-.49-.41-.87-.77-1.14-.36-.27-.8-.4-1.31-.4s-.92.13-1.28.4c-.36.27-.62.65-.77,1.14-.13.42-.2.98-.2,1.67s.07,1.26.2,1.69c.14.49.4.87.76,1.14.37.27.81.41,1.32.41.48,0,.9-.14,1.26-.41Z"/>
      <path d="M354.42,218.26c-.22-.22-.32-.49-.32-.83s.11-.61.32-.83c.22-.22.49-.32.83-.32s.61.11.83.32c.22.22.32.49.32.83s-.11.61-.32.83c-.22.22-.49.32-.83.32s-.61-.11-.83-.32ZM354.34,228.99v-8.78c0-.12.06-.18.18-.18h1.37c.12,0,.18.06.18.18v8.78c0,.12-.06.18-.18.18h-1.37c-.12,0-.18-.06-.18-.18Z"/>
      <path d="M365.22,220.76c.58.57.86,1.34.86,2.31v5.94c0,.12-.06.18-.18.18h-1.37c-.12,0-.18-.06-.18-.18v-5.6c0-.6-.17-1.09-.52-1.46-.35-.37-.81-.56-1.39-.56s-1.03.19-1.39.56c-.36.37-.54.85-.54,1.44v5.62c0,.12-.06.18-.18.18h-1.37c-.12,0-.18-.06-.18-.18v-8.8c0-.12.06-.18.18-.18h1.37c.12,0,.18.06.18.18v.65s0,.04.03.05c.02.01.03,0,.04-.02.52-.66,1.28-.99,2.29-.99s1.76.29,2.34.86Z"/>
      <path d="M372.88,221.45h-1.94s-.07.02-.07.07v4.77c0,.5.11.87.34,1.09.23.22.58.33,1.06.33h.52c.12,0,.18.06.18.18v1.12c0,.12-.06.18-.18.18-.38.02-.66.04-.83.04-.91,0-1.6-.17-2.06-.5s-.69-.94-.69-1.83v-5.38s-.02-.07-.07-.07h-1.1c-.12,0-.18-.06-.18-.18v-1.06c0-.12.06-.18.18-.18h1.1s.07-.02.07-.07v-2.12c0-.12.06-.18.18-.18h1.3c.12,0,.18.06.18.18v2.12s.02.07.07.07h1.94c.12,0,.18.06.18.18v1.06c0,.12-.06.18-.18.18Z"/>
    </g>
  </g>
  <g class="st5">
    <g class="st5">
      <path d="M16.31,179.73c-.22.23-.32.66-.32,1.3v.22s.02.07.07.07h1.89c.12,0,.18.06.18.18v1.22c0,.12-.06.18-.18.18h-1.89s-.07.02-.07.07v7.33c0,.12-.06.18-.18.18h-1.37c-.12,0-.18-.06-.18-.18v-7.33s-.02-.07-.07-.07h-1.21c-.12,0-.18-.06-.18-.18v-1.22c0-.12.06-.18.18-.18h1.21s.07-.02.07-.07v-.32c0-.79.09-1.4.28-1.84.19-.43.5-.74.95-.93.44-.19,1.07-.28,1.87-.28h.61c.12,0,.18.06.18.18v1.15c0,.12-.06.18-.18.18h-.43c-.6,0-1.01.11-1.22.34Z"/>
    </g>
    <g class="st5">
      <path d="M20.79,189.95c-.66-.45-1.12-1.08-1.39-1.88-.22-.65-.32-1.38-.32-2.2s.1-1.57.31-2.16c.26-.79.73-1.41,1.39-1.86.66-.45,1.45-.67,2.36-.67.86,0,1.62.22,2.26.67s1.1,1.07,1.38,1.84c.22.61.32,1.33.32,2.16s-.11,1.58-.32,2.21c-.26.8-.72,1.43-1.37,1.88-.65.45-1.41.67-2.29.67s-1.66-.22-2.32-.67ZM24.37,188.72c.36-.27.62-.65.77-1.14.13-.46.2-1.02.2-1.69s-.06-1.23-.18-1.67c-.16-.49-.41-.87-.77-1.14-.36-.27-.8-.4-1.31-.4s-.92.13-1.28.4c-.36.27-.62.65-.77,1.14-.13.42-.2.98-.2,1.67s.07,1.26.2,1.69c.14.49.4.87.77,1.14.37.27.81.41,1.32.41.48,0,.9-.14,1.26-.41Z"/>
      <path d="M30.69,189.93c-.65-.46-1.09-1.09-1.33-1.88-.18-.55-.27-1.28-.27-2.18,0-.83.09-1.55.27-2.18.24-.77.69-1.38,1.34-1.84.65-.46,1.43-.68,2.33-.68s1.69.23,2.36.68c.67.46,1.11,1.03,1.31,1.73.07.19.12.39.14.59,0,.1-.05.16-.16.18l-1.35.2h-.04c-.08,0-.14-.05-.18-.16l-.05-.29c-.1-.41-.33-.75-.7-1.03-.37-.28-.82-.41-1.35-.41s-.95.14-1.31.41c-.36.28-.59.64-.7,1.1-.11.43-.16,1-.16,1.71s.05,1.26.16,1.69c.12.48.36.86.71,1.13.35.28.79.41,1.31.41s.98-.14,1.36-.41c.38-.28.61-.64.71-1.08.01-.01.02-.03,0-.04,0-.02,0-.03,0-.04v-.07c.04-.1.1-.13.2-.11l1.35.22c.1.02.14.07.14.14v.07c0,.11-.03.24-.09.39-.2.73-.64,1.32-1.31,1.76-.67.45-1.46.67-2.36.67s-1.69-.23-2.34-.69Z"/>
      <path d="M44.46,181.32h1.35c.12,0,.18.06.18.18v8.8c0,.12-.06.18-.18.18h-1.35c-.12,0-.18-.06-.18-.18v-.67s0-.04-.03-.04-.04,0-.06.03c-.48.66-1.22.99-2.21.99-.59,0-1.13-.11-1.63-.34-.5-.23-.9-.56-1.2-1.01-.3-.44-.45-.98-.45-1.62v-6.14c0-.12.06-.18.18-.18h1.35c.12,0,.18.06.18.18v5.6c0,.62.16,1.12.49,1.48s.79.54,1.4.54,1.08-.18,1.44-.55c.36-.37.54-.86.54-1.47v-5.6c0-.12.06-.18.18-.18Z"/>
      <path d="M49.83,190.26c-.55-.21-.97-.51-1.27-.89-.3-.38-.45-.79-.45-1.25v-.2c0-.12.06-.18.18-.18h1.3c.12,0,.18.06.18.18v.09c0,.34.18.63.55.88s.83.38,1.4.38.98-.12,1.31-.35c.34-.23.5-.53.5-.89s-.16-.61-.47-.78c-.31-.17-.82-.36-1.51-.55-.68-.19-1.26-.39-1.72-.58-.46-.2-.85-.48-1.17-.85-.32-.37-.48-.84-.48-1.41,0-.8.31-1.44.94-1.92.63-.47,1.47-.71,2.51-.71.7,0,1.31.11,1.84.33.53.22.95.53,1.23.93.29.4.43.84.43,1.33v.05c0,.12-.06.18-.18.18h-1.26c-.12,0-.18-.06-.18-.18v-.05c0-.35-.17-.64-.51-.87-.34-.23-.81-.35-1.4-.35-.53,0-.96.1-1.29.31s-.5.48-.5.83.16.61.48.79.83.37,1.54.58c.7.19,1.27.38,1.74.57.46.19.85.46,1.18.83.32.37.49.84.49,1.43,0,.82-.32,1.46-.96,1.94-.64.48-1.5.72-2.56.72-.72,0-1.35-.11-1.9-.32Z"/>
    </g>
    <g class="st5">
      <path d="M16.79,203.65c.58.57.86,1.34.86,2.31v5.94c0,.12-.06.18-.18.18h-1.37c-.12,0-.18-.06-.18-.18v-5.6c0-.6-.17-1.09-.52-1.46-.35-.37-.81-.56-1.39-.56s-1.03.19-1.39.56c-.36.37-.54.85-.54,1.44v5.62c0,.12-.06.18-.18.18h-1.37c-.12,0-.18-.06-.18-.18v-12.24c0-.12.06-.18.18-.18h1.37c.12,0,.18.06.18.18v4.09s0,.04.03.05c.02.01.03,0,.04-.02.52-.66,1.28-.99,2.29-.99s1.76.29,2.34.86Z"/>
    </g>
    <g class="st5">
      <path d="M27.48,208.01c0,.12-.06.18-.18.18h-5.74s-.07.02-.07.07c0,.41.04.72.11.94.13.48.4.85.8,1.12.4.27.91.41,1.52.41.89,0,1.57-.37,2.05-1.1.06-.12.14-.14.23-.05l1.03.68c.08.07.1.15.05.23-.34.54-.81.97-1.43,1.28-.62.31-1.32.47-2.1.47-.88,0-1.61-.19-2.21-.58s-1.05-.93-1.35-1.64c-.29-.71-.43-1.57-.43-2.57,0-.88.07-1.54.2-2,.22-.83.65-1.48,1.3-1.96.65-.48,1.43-.72,2.36-.72,1.21,0,2.12.3,2.72.91.6.61.97,1.5,1.1,2.67.05.49.07,1.04.05,1.66ZM22.33,204.66c-.34.26-.56.6-.68,1.04-.08.26-.14.6-.16,1.01,0,.05.02.07.07.07h4.12s.07-.02.07-.07c-.02-.4-.06-.69-.11-.88-.12-.47-.36-.84-.71-1.12-.35-.28-.8-.42-1.32-.42s-.94.13-1.28.39Z"/>
      <path d="M29.87,201.15c-.22-.22-.32-.49-.32-.83s.11-.61.32-.83c.22-.22.49-.32.83-.32s.61.11.83.32c.22.22.32.49.32.83s-.11.61-.32.83c-.22.22-.49.32-.83.32s-.61-.11-.83-.32ZM29.8,211.88v-8.78c0-.12.06-.18.18-.18h1.37c.12,0,.18.06.18.18v8.78c0,.12-.06.18-.18.18h-1.37c-.12,0-.18-.06-.18-.18Z"/>
      <path d="M40.06,202.92h1.37c.12,0,.18.06.18.18v8.51c0,1.45-.41,2.49-1.23,3.11-.82.62-1.92.94-3.3.94-.19,0-.49-.01-.9-.04-.12-.01-.18-.08-.18-.2l.05-1.24s.02-.09.05-.13c.04-.04.08-.05.14-.04.17.01.41.02.74.02,1.02,0,1.76-.19,2.21-.57.46-.38.68-1.02.68-1.92v-.32s0-.04-.03-.05c-.02-.01-.04,0-.06.02-.5.59-1.24.88-2.21.88-.78,0-1.48-.2-2.11-.61-.63-.41-1.07-1.01-1.31-1.8-.16-.53-.23-1.26-.23-2.2,0-1,.09-1.76.27-2.3.23-.72.63-1.3,1.21-1.74.58-.44,1.27-.66,2.06-.66.98,0,1.76.3,2.32.9.02.02.04.03.06.03.02,0,.03-.02.03-.04v-.56c0-.12.06-.18.18-.18ZM39.85,208.53c.02-.22.03-.58.03-1.08s0-.86-.03-1.07c-.02-.21-.05-.41-.1-.6-.1-.44-.31-.81-.65-1.09-.34-.28-.76-.42-1.26-.42s-.92.14-1.26.42c-.34.28-.58.64-.72,1.09-.13.36-.2.92-.2,1.67,0,.83.06,1.39.18,1.69.12.44.36.81.71,1.09.35.28.78.42,1.29.42s.96-.14,1.29-.42.54-.65.64-1.09c.04-.19.06-.4.08-.61Z"/>
      <path d="M50.45,203.65c.58.57.86,1.34.86,2.31v5.94c0,.12-.06.18-.18.18h-1.37c-.12,0-.18-.06-.18-.18v-5.6c0-.6-.17-1.09-.52-1.46-.35-.37-.81-.56-1.39-.56s-1.03.19-1.39.56c-.36.37-.54.85-.54,1.44v5.62c0,.12-.06.18-.18.18h-1.37c-.12,0-.18-.06-.18-.18v-12.24c0-.12.06-.18.18-.18h1.37c.12,0,.18.06.18.18v4.09s0,.04.03.05c.02.01.03,0,.04-.02.52-.66,1.28-.99,2.29-.99s1.76.29,2.34.86Z"/>
      <path d="M58.12,204.34h-1.94s-.07.02-.07.07v4.77c0,.5.11.87.34,1.09.23.22.58.33,1.06.33h.52c.12,0,.18.06.18.18v1.12c0,.12-.06.18-.18.18-.38.02-.66.04-.83.04-.91,0-1.6-.17-2.06-.5-.46-.33-.69-.94-.69-1.83v-5.38s-.02-.07-.07-.07h-1.1c-.12,0-.18-.06-.18-.18v-1.06c0-.12.06-.18.18-.18h1.1s.07-.02.07-.07v-2.12c0-.12.06-.18.18-.18h1.3c.12,0,.18.06.18.18v2.12s.02.07.07.07h1.94c.12,0,.18.06.18.18v1.06c0,.12-.06.18-.18.18Z"/>
    </g>
  </g>
  <circle class="st1" cx="118.89" cy="282.93" r="15.5"/>
  <polyline class="st0" points="131.89 273.15 184.75 224.29 269.89 224.29"/>
  <polygon class="st6" points="112.66 349.01 125.12 349.01 120.55 282.43 125.06 216.86 112.73 216.86 117.24 282.43 112.66 349.01"/>
  <line class="st0" x1="77.89" y1="258.43" x2="77.89" y2="142.43"/>
  <polygon class="st2" points="77.89 142.43 74.24 151.24 81.55 151.24 77.89 142.43"/>
  <polygon class="st2" points="77.89 258.43 81.55 249.62 74.24 249.62 77.89 258.43"/>
</svg>