<?xml version="1.0" encoding="UTF-8"?>
<svg id="Ebene_1" xmlns="http://www.w3.org/2000/svg" version="1.1" viewBox="0 0 513.2 283.46">
  <!-- Generator: Adobe Illustrator 30.2.1, SVG Export Plug-In . SVG Version: 2.1.1 Build 1)  -->
  <defs>
    <style>
      .st0 {
        fill: none;
        stroke-miterlimit: 10;
      }

      .st0, .st1 {
        stroke: #000;
      }

      .st2 {
        fill: blue;
      }

      .st3 {
        fill: #e30613;
      }

      .st4 {
        isolation: isolate;
      }

      .st1 {
        stroke-linecap: round;
        stroke-linejoin: round;
      }

      .st5 {
        fill: #1d1d1b;
      }
    </style>
  </defs>
  <rect class="st3" width="49.3" height="49.3"/>
  <g class="st4">
    <g class="st4">
      <path d="M94.45,14.03c-.52-.27-.92-.64-1.2-1.13s-.43-1.05-.43-1.69v-3.63c0-.63.14-1.19.43-1.67.28-.48.69-.85,1.2-1.12.52-.27,1.11-.4,1.78-.4s1.26.13,1.78.38c.51.26.91.62,1.2,1.08.28.47.43,1.01.43,1.62h0c0,.06-.01.1-.04.13-.03.03-.06.04-.1.04l-1.06.06c-.09,0-.14-.04-.14-.13v-.04c0-.6-.19-1.08-.56-1.44-.37-.36-.87-.55-1.5-.55s-1.13.18-1.5.55-.57.84-.57,1.44v3.72c0,.6.19,1.08.57,1.44.38.36.88.55,1.5.55s1.12-.18,1.5-.55c.37-.36.56-.84.56-1.44v-.03c0-.08.05-.13.14-.13l1.06.06c.09,0,.14.05.14.14,0,.62-.14,1.16-.43,1.63-.28.47-.68.84-1.2,1.1-.51.26-1.11.39-1.78.39s-1.27-.13-1.78-.4Z"/>
      <path d="M103.13,14.01c-.52-.27-.92-.64-1.21-1.13s-.43-1.05-.43-1.69v-6.55c0-.09.05-.14.14-.14h1.06c.09,0,.14.05.14.14v6.58c0,.61.19,1.1.58,1.47.39.37.89.56,1.52.56s1.13-.19,1.51-.56c.38-.37.57-.86.57-1.47v-6.58c0-.09.05-.14.14-.14h1.06c.09,0,.14.05.14.14v6.55c0,.63-.14,1.2-.43,1.69s-.69.87-1.2,1.13-1.12.4-1.8.4-1.28-.13-1.8-.4Z"/>
      <path d="M116.93,4.64v.9c0,.09-.05.14-.14.14h-2.69s-.06.02-.06.06v8.43c0,.09-.05.14-.14.14h-1.06c-.09,0-.14-.05-.14-.14V5.73s-.02-.06-.06-.06h-2.56c-.09,0-.14-.05-.14-.14v-.9c0-.09.05-.14.14-.14h6.71c.09,0,.14.05.14.14Z"/>
    </g>
  </g>
  <g class="st4">
    <g class="st4">
      <path d="M98.97,41.06c0,.65-.07,1.22-.22,1.69-.2.62-.52,1.11-.97,1.45-.45.34-1.02.51-1.72.51-.32,0-.62-.06-.9-.19s-.53-.31-.73-.54c-.02-.02-.04-.02-.05-.01-.01,0-.02.02-.02.04v3.12c0,.09-.05.14-.14.14h-1.06c-.09,0-.14-.05-.14-.14v-9.52c0-.09.05-.14.14-.14h1.06c.09,0,.14.05.14.14v.46s0,.03.02.04c.01,0,.03,0,.05-.01.21-.23.45-.42.73-.55.28-.13.58-.2.91-.2.67,0,1.23.17,1.67.5.44.33.77.8.97,1.41.18.5.27,1.1.27,1.79ZM97.61,41.03c0-.72-.12-1.3-.35-1.74-.27-.51-.71-.77-1.33-.77-.54,0-.95.25-1.23.76-.22.4-.34.99-.34,1.76s.12,1.38.36,1.79c.27.48.67.71,1.19.71.56,0,.98-.22,1.25-.67.3-.45.45-1.06.45-1.85Z"/>
    </g>
    <g class="st4">
      <path d="M101.76,44.19c-.51-.35-.87-.84-1.08-1.46-.17-.5-.25-1.07-.25-1.71s.08-1.22.24-1.68c.21-.62.56-1.1,1.08-1.45.51-.35,1.12-.53,1.83-.53.67,0,1.26.17,1.76.53.5.35.86.83,1.07,1.43.17.48.25,1.04.25,1.68s-.08,1.23-.25,1.72c-.21.62-.56,1.11-1.06,1.46s-1.1.53-1.78.53-1.29-.18-1.81-.53ZM104.54,43.23c.28-.21.48-.51.6-.89.1-.35.15-.79.15-1.32s-.05-.96-.14-1.3c-.12-.38-.32-.68-.6-.89-.28-.21-.62-.32-1.02-.32s-.71.11-.99.32c-.28.21-.48.51-.6.89-.1.33-.15.76-.15,1.3s.05.98.15,1.32c.11.38.31.68.59.89s.63.32,1.03.32c.37,0,.7-.11.98-.32Z"/>
    </g>
    <g class="st4">
      <path d="M109.53,44.49l-2.02-6.86v-.04c-.01-.08.03-.11.13-.11h1.09c.08,0,.14.04.15.13l1.33,5.08s.02.03.03.03.03,0,.04-.03l1.36-5.08c.02-.08.07-.13.15-.13h.97c.08,0,.14.04.15.13l1.39,5.07s.02.03.03.03.03,0,.04-.03l1.39-5.07c.02-.08.07-.13.15-.13h1.08s.08.03.1.06c.02.03.03.07.02.11l-2.03,6.85c-.03.08-.08.11-.15.11h-1.09c-.08,0-.13-.04-.15-.11l-1.37-4.73s-.02-.03-.03-.03-.03,0-.04.03l-1.3,4.72c-.02.08-.07.13-.15.13h-1.11c-.07,0-.13-.04-.15-.11Z"/>
    </g>
    <g class="st4">
      <path d="M124,41.44c0,.09-.05.14-.14.14h-4.47s-.06.02-.06.06c0,.32.03.56.08.73.1.37.31.67.62.88.31.21.71.32,1.18.32.69,0,1.22-.29,1.6-.85.05-.09.11-.11.18-.04l.8.53c.06.06.08.12.04.18-.26.42-.63.75-1.11.99-.48.24-1.02.36-1.63.36-.68,0-1.26-.15-1.72-.45-.47-.3-.82-.72-1.05-1.27-.22-.55-.34-1.22-.34-2,0-.68.05-1.2.15-1.55.17-.64.5-1.15,1.01-1.53.5-.37,1.12-.56,1.83-.56.94,0,1.65.24,2.11.71.47.47.75,1.17.85,2.08.04.38.05.81.04,1.29ZM120,38.82c-.26.2-.44.47-.53.81-.07.21-.11.47-.13.78,0,.04.02.06.06.06h3.21s.06-.02.06-.06c-.02-.31-.05-.54-.08-.69-.09-.36-.28-.66-.55-.88-.28-.22-.62-.33-1.03-.33s-.73.1-.99.3Z"/>
      <path d="M129.63,37.59c.06.03.09.08.07.17l-.22,1.05c0,.08-.06.11-.17.08-.16-.07-.35-.1-.56-.1h-.2c-.44.03-.8.18-1.08.47-.28.28-.43.66-.43,1.11v4.09c0,.09-.05.14-.14.14h-1.06c-.09,0-.14-.05-.14-.14v-6.85c0-.09.05-.14.14-.14h1.06c.09,0,.14.05.14.14v.74s0,.04.02.05c.01,0,.03,0,.03-.02.42-.65.99-.98,1.72-.98.3,0,.57.06.81.18Z"/>
    </g>
  </g>
  <g class="st4">
    <g class="st4">
      <path d="M212.46,44.43c-.42-.17-.75-.4-.99-.69s-.35-.62-.35-.97v-.15c0-.09.05-.14.14-.14h1.01c.09,0,.14.05.14.14v.07c0,.26.14.49.43.69.28.2.65.29,1.08.29s.76-.09,1.02-.27c.26-.18.39-.41.39-.69s-.12-.47-.36-.61c-.24-.14-.63-.28-1.18-.43-.53-.15-.98-.3-1.34-.45-.36-.15-.66-.37-.91-.66-.25-.29-.37-.65-.37-1.1,0-.62.25-1.12.73-1.49.49-.37,1.14-.55,1.95-.55.54,0,1.02.09,1.44.26.42.17.73.41.96.72.22.31.34.65.34,1.04v.04c0,.09-.05.14-.14.14h-.98c-.09,0-.14-.05-.14-.14v-.04c0-.27-.13-.5-.4-.68-.27-.18-.63-.27-1.08-.27-.41,0-.74.08-1,.24-.26.16-.38.37-.38.64s.12.48.37.62c.25.14.65.29,1.2.45.54.15.99.3,1.35.44.36.14.67.36.92.64.25.28.38.66.38,1.11,0,.63-.25,1.14-.75,1.51-.5.37-1.16.56-2,.56-.56,0-1.05-.08-1.48-.25Z"/>
    </g>
    <g class="st4">
      <path d="M224.3,41.06c0,.65-.07,1.22-.22,1.69-.2.62-.52,1.11-.97,1.45-.45.34-1.02.51-1.72.51-.32,0-.62-.06-.9-.19s-.53-.31-.73-.54c-.02-.02-.04-.02-.05-.01-.01,0-.02.02-.02.04v3.12c0,.09-.05.14-.14.14h-1.06c-.09,0-.14-.05-.14-.14v-9.52c0-.09.05-.14.14-.14h1.06c.09,0,.14.05.14.14v.46s0,.03.02.04c.01,0,.03,0,.05-.01.21-.23.45-.42.73-.55.28-.13.58-.2.91-.2.67,0,1.23.17,1.67.5.44.33.77.8.97,1.41.18.5.27,1.1.27,1.79ZM222.94,41.03c0-.72-.12-1.3-.35-1.74-.27-.51-.71-.77-1.33-.77-.54,0-.95.25-1.23.76-.22.4-.34.99-.34,1.76s.12,1.38.36,1.79c.27.48.67.71,1.19.71.56,0,.98-.22,1.25-.67.3-.45.45-1.06.45-1.85Z"/>
    </g>
    <g class="st4">
      <path d="M231.79,41.44c0,.09-.05.14-.14.14h-4.47s-.06.02-.06.06c0,.32.03.56.08.73.1.37.31.67.62.88.31.21.71.32,1.18.32.69,0,1.22-.29,1.6-.85.05-.09.11-.11.18-.04l.8.53c.06.06.08.12.04.18-.26.42-.63.75-1.11.99-.48.24-1.02.36-1.63.36-.68,0-1.26-.15-1.72-.45-.47-.3-.82-.72-1.05-1.27-.22-.55-.34-1.22-.34-2,0-.68.05-1.2.15-1.55.17-.64.5-1.15,1.01-1.53.5-.37,1.12-.56,1.83-.56.94,0,1.65.24,2.11.71.47.47.75,1.17.85,2.08.04.38.05.81.04,1.29ZM227.79,38.82c-.26.2-.44.47-.53.81-.07.21-.11.47-.13.78,0,.04.02.06.06.06h3.21s.06-.02.06-.06c-.02-.31-.05-.54-.08-.69-.09-.36-.28-.66-.55-.88-.28-.22-.62-.33-1.03-.33s-.73.1-.99.3Z"/>
      <path d="M239.29,41.44c0,.09-.05.14-.14.14h-4.47s-.06.02-.06.06c0,.32.03.56.08.73.1.37.31.67.62.88.31.21.71.32,1.18.32.69,0,1.22-.29,1.6-.85.05-.09.11-.11.18-.04l.8.53c.06.06.08.12.04.18-.26.42-.63.75-1.11.99-.48.24-1.02.36-1.63.36-.68,0-1.26-.15-1.72-.45-.47-.3-.82-.72-1.05-1.27-.22-.55-.34-1.22-.34-2,0-.68.05-1.2.15-1.55.17-.64.5-1.15,1.01-1.53.5-.37,1.12-.56,1.83-.56.94,0,1.65.24,2.11.71.47.47.75,1.17.85,2.08.04.38.05.81.04,1.29ZM235.29,38.82c-.26.2-.44.47-.53.81-.07.21-.11.47-.13.78,0,.04.02.06.06.06h3.21s.06-.02.06-.06c-.02-.31-.05-.54-.08-.69-.09-.36-.28-.66-.55-.88-.28-.22-.62-.33-1.03-.33s-.73.1-.99.3Z"/>
      <path d="M245.55,34.8h1.06c.09,0,.14.05.14.14v9.52c0,.09-.05.14-.14.14h-1.06c-.09,0-.14-.05-.14-.14v-.46s0-.03-.02-.04c-.01,0-.03,0-.05.01-.21.23-.45.42-.73.55-.28.13-.58.2-.91.2-.67,0-1.23-.17-1.67-.5s-.77-.8-.97-1.41c-.18-.49-.27-1.09-.27-1.79,0-.65.07-1.22.22-1.69.2-.62.52-1.1.97-1.44.45-.35,1.02-.52,1.72-.52.32,0,.62.06.9.19.28.13.53.31.73.54.02.02.04.02.05.01.01,0,.02-.02.02-.04v-3.12c0-.09.05-.14.14-.14ZM245.38,41.03c0-.78-.12-1.38-.35-1.79-.27-.48-.67-.71-1.19-.71-.56,0-.98.22-1.25.67-.3.47-.45,1.08-.45,1.85,0,.72.12,1.3.35,1.74.27.51.71.77,1.33.77.54,0,.95-.25,1.23-.76.21-.39.32-.98.32-1.76Z"/>
    </g>
  </g>
  <g class="st4">
    <g class="st4">
      <path d="M472.78,38.01c.41.42.62,1.01.62,1.77v4.68c0,.09-.05.14-.14.14h-1.05c-.09,0-.14-.05-.14-.14v-4.4c0-.47-.13-.84-.39-1.11-.26-.27-.6-.41-1.03-.41s-.78.13-1.05.41c-.27.27-.41.63-.41,1.09v4.42c0,.09-.05.14-.14.14h-1.05c-.09,0-.14-.05-.14-.14v-4.4c0-.47-.13-.84-.38-1.11-.26-.27-.6-.41-1.03-.41s-.77.13-1.03.41c-.26.27-.38.63-.38,1.09v4.42c0,.09-.05.14-.14.14h-1.06c-.09,0-.14-.05-.14-.14v-6.85c0-.09.05-.14.14-.14h1.06c.09,0,.14.05.14.14v.48s0,.03.02.04c.01,0,.03,0,.05-.01.41-.49,1.01-.74,1.79-.74.48,0,.88.09,1.22.27.34.18.6.45.79.8.03.04.06.04.08,0,.22-.36.52-.63.89-.81.37-.18.78-.27,1.22-.27.71,0,1.27.21,1.68.64Z"/>
    </g>
    <g class="st4">
      <path d="M479.35,37.66c.42.2.75.48.98.84.23.36.34.77.34,1.22v4.73c0,.09-.05.14-.14.14h-1.06c-.09,0-.14-.05-.14-.14v-.5s-.02-.06-.07-.03c-.24.25-.54.45-.89.58-.35.13-.74.2-1.17.2-.69,0-1.26-.18-1.71-.53-.45-.35-.68-.88-.68-1.59s.25-1.3.76-1.71c.51-.42,1.22-.62,2.14-.62h1.57s.06-.02.06-.06v-.38c0-.41-.12-.73-.36-.96-.24-.23-.6-.34-1.08-.34-.39,0-.71.08-.96.23-.25.15-.4.36-.45.62-.03.09-.08.13-.17.13l-1.13-.15c-.09-.02-.13-.06-.13-.11.08-.55.37-1,.88-1.35.51-.35,1.16-.53,1.93-.53.57,0,1.07.1,1.49.3ZM478.78,43.19c.37-.26.55-.59.55-.99v-.83s-.02-.06-.06-.06h-1.32c-.55,0-.99.11-1.32.32-.33.21-.49.51-.49.9,0,.35.12.61.37.78.25.18.57.27.97.27.49,0,.92-.13,1.29-.39Z"/>
    </g>
    <g class="st4">
      <path d="M485.76,38.58h-1.51s-.06.02-.06.06v3.71c0,.39.09.67.27.85.18.17.45.26.83.26h.41c.09,0,.14.05.14.14v.87c0,.09-.05.14-.14.14-.3.02-.51.03-.64.03-.71,0-1.24-.13-1.6-.39-.36-.26-.54-.73-.54-1.42v-4.19s-.02-.06-.06-.06h-.85c-.09,0-.14-.05-.14-.14v-.83c0-.09.05-.14.14-.14h.85s.06-.02.06-.06v-1.65c0-.09.05-.14.14-.14h1.01c.09,0,.14.05.14.14v1.65s.02.06.06.06h1.51c.09,0,.14.05.14.14v.83c0,.09-.05.14-.14.14Z"/>
    </g>
    <g class="st4">
      <path d="M493.2,41.44c0,.09-.05.14-.14.14h-4.47s-.06.02-.06.06c0,.32.03.56.08.73.1.37.31.67.62.88.31.21.71.32,1.18.32.69,0,1.22-.29,1.6-.85.05-.09.11-.11.18-.04l.8.53c.07.06.08.12.04.18-.26.42-.63.75-1.11.99-.48.24-1.02.36-1.63.36-.68,0-1.25-.15-1.72-.45-.47-.3-.82-.72-1.05-1.27-.22-.55-.34-1.22-.34-2,0-.68.05-1.2.15-1.55.17-.64.5-1.15,1.01-1.53.5-.37,1.12-.56,1.83-.56.94,0,1.65.24,2.11.71.47.47.75,1.17.85,2.08.04.38.05.81.04,1.29ZM489.2,38.82c-.26.2-.44.47-.53.81-.07.21-.11.47-.13.78,0,.04.02.06.06.06h3.21s.06-.02.06-.06c-.02-.31-.05-.54-.08-.69-.09-.36-.28-.66-.55-.88-.28-.22-.62-.33-1.03-.33s-.73.1-.99.3Z"/>
      <path d="M498.83,37.59c.06.03.09.08.07.17l-.22,1.05c0,.08-.07.11-.17.08-.16-.07-.35-.1-.56-.1h-.2c-.44.03-.8.18-1.08.47-.29.28-.43.66-.43,1.11v4.09c0,.09-.05.14-.14.14h-1.06c-.09,0-.14-.05-.14-.14v-6.85c0-.09.05-.14.14-.14h1.06c.09,0,.14.05.14.14v.74s0,.04.02.05c.01,0,.03,0,.04-.02.42-.65.99-.98,1.72-.98.3,0,.57.06.81.18Z"/>
      <path d="M500.26,36.1c-.17-.17-.25-.38-.25-.64s.08-.48.25-.64.38-.25.64-.25.48.08.64.25.25.38.25.64-.08.48-.25.64-.38.25-.64.25-.48-.08-.64-.25ZM500.2,44.45v-6.83c0-.09.05-.14.14-.14h1.06c.09,0,.14.05.14.14v6.83c0,.09-.05.14-.14.14h-1.06c-.09,0-.14-.05-.14-.14Z"/>
      <path d="M507.75,37.66c.42.2.75.48.98.84s.34.77.34,1.22v4.73c0,.09-.05.14-.14.14h-1.06c-.09,0-.14-.05-.14-.14v-.5s-.02-.06-.07-.03c-.24.25-.54.45-.89.58-.35.13-.74.2-1.17.2-.69,0-1.26-.18-1.71-.53-.45-.35-.68-.88-.68-1.59s.25-1.3.76-1.71,1.22-.62,2.13-.62h1.57s.06-.02.06-.06v-.38c0-.41-.12-.73-.36-.96-.24-.23-.6-.34-1.08-.34-.39,0-.71.08-.96.23-.25.15-.4.36-.45.62-.03.09-.08.13-.17.13l-1.13-.15c-.09-.02-.13-.06-.13-.11.08-.55.37-1,.88-1.35.51-.35,1.16-.53,1.93-.53.57,0,1.07.1,1.49.3ZM507.19,43.19c.36-.26.55-.59.55-.99v-.83s-.02-.06-.06-.06h-1.32c-.55,0-.99.11-1.32.32-.33.21-.49.51-.49.9,0,.35.12.61.37.78.25.18.57.27.97.27.49,0,.92-.13,1.29-.39Z"/>
      <path d="M510.9,44.46v-9.52c0-.09.05-.14.14-.14h1.06c.09,0,.14.05.14.14v9.52c0,.09-.05.14-.14.14h-1.06c-.09,0-.14-.05-.14-.14Z"/>
    </g>
  </g>
  <g>
    <line class="st0" x1="139.52" y1="48.04" x2="139.52" y2="29.94"/>
    <polygon class="st1" points="139.52 29.94 135.87 38.76 143.17 38.76 139.52 29.94"/>
  </g>
  <g>
    <line class="st0" x1="258.48" y1="29.94" x2="258.48" y2="48.04"/>
    <polygon class="st1" points="258.48 48.04 262.13 39.23 254.83 39.23 258.48 48.04"/>
  </g>
  <polygon class="st0" points="389 44.6 332.87 44.6 332.87 29.94 356.76 29.94 388 29.94 389 44.6"/>
  <polygon class="st0" points="447.65 44.6 391.52 44.6 392.52 29.94 414.41 29.94 447.65 29.94 447.65 44.6"/>
  <rect class="st5" y="234.15" width="49.3" height="49.3"/>
  <g class="st4">
    <g class="st4">
      <path d="M99.46,239.81h-4.97s-.06.02-.06.06v3.01s.02.06.06.06h3.42c.09,0,.14.05.14.14v.88c0,.09-.05.14-.14.14h-3.42s-.06.02-.06.06v3.08s.02.06.06.06h4.97c.09,0,.14.05.14.14v.88c0,.09-.05.14-.14.14h-6.23c-.09,0-.14-.05-.14-.14v-9.52c0-.09.05-.14.14-.14h6.23c.09,0,.14.05.14.14v.88c0,.09-.05.14-.14.14Z"/>
      <path d="M107.37,238.65h1.06c.09,0,.14.05.14.14v9.52c0,.09-.05.14-.14.14h-1.02c-.07,0-.12-.03-.17-.1l-4.38-7.15s-.02-.04-.04-.04-.03.02-.03.05v7.1c.01.09-.03.14-.13.14h-1.06c-.09,0-.14-.05-.14-.14v-9.52c0-.09.05-.14.14-.14h1.04c.06,0,.12.03.17.1l4.37,7.15s.02.04.04.04.03-.02.03-.05v-7.1c-.01-.09.03-.14.13-.14Z"/>
      <path d="M112.25,248.16c-.52-.27-.92-.64-1.2-1.13s-.43-1.05-.43-1.69v-3.58c0-.64.14-1.21.43-1.69s.69-.86,1.2-1.13c.52-.27,1.11-.4,1.78-.4s1.26.13,1.78.39c.51.26.91.62,1.2,1.08.28.46.43.98.43,1.56v.15c0,.09-.05.14-.14.14h-1.06c-.09,0-.14-.05-.14-.14v-.13c0-.56-.19-1.02-.57-1.37s-.88-.53-1.49-.53-1.13.18-1.5.55c-.38.36-.57.85-.57,1.46v3.67c0,.61.2,1.09.59,1.46.39.36.91.55,1.54.55s1.1-.16,1.46-.48.54-.76.54-1.32v-1.08s-.02-.06-.06-.06h-1.89c-.09,0-.14-.05-.14-.14v-.87c0-.09.05-.14.14-.14h3.15c.09,0,.14.05.14.14v1.78c0,1.07-.31,1.9-.92,2.48-.61.58-1.44.87-2.49.87-.67,0-1.27-.13-1.78-.4Z"/>
    </g>
    <g class="st4">
      <path d="M124.9,248.35l-1.96-4.19s-.03-.04-.06-.04h-2.02s-.06.02-.06.06v4.13c0,.09-.05.14-.14.14h-1.06c-.09,0-.14-.05-.14-.14v-9.52c0-.09.05-.14.14-.14h3.77c.56,0,1.05.12,1.48.35s.75.56.99.98c.23.42.35.91.35,1.46,0,.65-.17,1.21-.51,1.66-.34.45-.81.76-1.42.92-.04.02-.05.04-.03.07l2.03,4.2s.01.04.01.07c0,.07-.04.1-.11.1h-1.11c-.07,0-.13-.03-.15-.1ZM120.81,239.87v3.14s.02.06.06.06h2.34c.49,0,.89-.15,1.19-.44.3-.29.45-.68.45-1.17s-.15-.89-.45-1.19c-.3-.3-.7-.45-1.19-.45h-2.34s-.06.02-.06.06Z"/>
    </g>
    <g class="st4">
      <path d="M134.23,248.34l-.5-1.64s-.03-.04-.06-.04h-3.93s-.05.01-.06.04l-.5,1.64c-.03.08-.08.11-.17.11h-1.13c-.1,0-.14-.05-.11-.15l3.07-9.53c.03-.07.08-.11.17-.11h1.4c.08,0,.14.04.17.11l3.09,9.53v.06c.01.07-.03.1-.11.1h-1.15c-.08,0-.14-.04-.17-.11ZM130.04,245.57s.03.02.05.02h3.22s.04,0,.05-.02c.01-.01.02-.03,0-.05l-1.62-5.19s-.02-.03-.04-.03-.03,0-.04.03l-1.62,5.19s0,.04,0,.05Z"/>
    </g>
    <g class="st4">
      <path d="M139.05,248.34l-3-9.53v-.06c-.01-.07.03-.1.11-.1h1.13c.08,0,.14.04.17.11l2.31,7.74s.02.03.04.03.03,0,.04-.03l2.31-7.74c.03-.07.08-.11.15-.11h1.11c.1,0,.14.05.11.15l-3.02,9.53c-.03.08-.08.11-.17.11h-1.13c-.08,0-.14-.04-.17-.11Z"/>
    </g>
    <g class="st4">
      <path d="M151.37,239.81h-4.97s-.06.02-.06.06v3.01s.02.06.06.06h3.42c.09,0,.14.05.14.14v.88c0,.09-.05.14-.14.14h-3.42s-.06.02-.06.06v3.08s.02.06.06.06h4.97c.09,0,.14.05.14.14v.88c0,.09-.05.14-.14.14h-6.23c-.09,0-.14-.05-.14-.14v-9.52c0-.09.05-.14.14-.14h6.23c.09,0,.14.05.14.14v.88c0,.09-.05.14-.14.14Z"/>
    </g>
  </g>
  <g class="st4">
    <g class="st4">
      <path d="M98.97,275.22c0,.65-.07,1.22-.22,1.69-.2.62-.52,1.11-.97,1.45-.45.34-1.02.51-1.72.51-.32,0-.62-.06-.9-.19s-.53-.31-.73-.54c-.02-.02-.04-.02-.05-.01-.01,0-.02.02-.02.04v3.12c0,.09-.05.14-.14.14h-1.06c-.09,0-.14-.05-.14-.14v-9.52c0-.09.05-.14.14-.14h1.06c.09,0,.14.05.14.14v.46s0,.03.02.04c.01,0,.03,0,.05-.01.21-.23.45-.42.73-.55.28-.13.58-.2.91-.2.67,0,1.23.17,1.67.5.44.33.77.8.97,1.41.18.5.27,1.1.27,1.79ZM97.61,275.19c0-.72-.12-1.3-.35-1.74-.27-.51-.71-.77-1.33-.77-.54,0-.95.25-1.23.76-.22.4-.34.99-.34,1.76s.12,1.38.36,1.79c.27.48.67.71,1.19.71.56,0,.98-.22,1.25-.67.3-.45.45-1.06.45-1.85Z"/>
    </g>
    <g class="st4">
      <path d="M101.76,278.35c-.51-.35-.87-.84-1.08-1.46-.17-.5-.25-1.07-.25-1.71s.08-1.22.24-1.68c.21-.62.56-1.1,1.08-1.45.51-.35,1.12-.53,1.83-.53.67,0,1.26.17,1.76.53.5.35.86.83,1.07,1.43.17.48.25,1.04.25,1.68s-.08,1.23-.25,1.72c-.21.62-.56,1.11-1.06,1.46s-1.1.53-1.78.53-1.29-.18-1.81-.53ZM104.54,277.39c.28-.21.48-.51.6-.89.1-.35.15-.79.15-1.32s-.05-.96-.14-1.3c-.12-.38-.32-.68-.6-.89-.28-.21-.62-.32-1.02-.32s-.71.11-.99.32c-.28.21-.48.51-.6.89-.1.33-.15.76-.15,1.3s.05.98.15,1.32c.11.38.31.68.59.89s.63.32,1.03.32c.37,0,.7-.11.98-.32Z"/>
    </g>
    <g class="st4">
      <path d="M109.53,278.65l-2.02-6.86v-.04c-.01-.08.03-.11.13-.11h1.09c.08,0,.14.04.15.13l1.33,5.08s.02.03.03.03.03,0,.04-.03l1.36-5.08c.02-.08.07-.13.15-.13h.97c.08,0,.14.04.15.13l1.39,5.07s.02.03.03.03.03,0,.04-.03l1.39-5.07c.02-.08.07-.13.15-.13h1.08s.08.03.1.06c.02.03.03.07.02.11l-2.03,6.85c-.03.08-.08.11-.15.11h-1.09c-.08,0-.13-.04-.15-.11l-1.37-4.73s-.02-.03-.03-.03-.03,0-.04.03l-1.3,4.72c-.02.08-.07.13-.15.13h-1.11c-.07,0-.13-.04-.15-.11Z"/>
    </g>
    <g class="st4">
      <path d="M124,275.6c0,.09-.05.14-.14.14h-4.47s-.06.02-.06.06c0,.32.03.56.08.73.1.37.31.67.62.88.31.21.71.32,1.18.32.69,0,1.22-.29,1.6-.85.05-.09.11-.11.18-.04l.8.53c.06.06.08.12.04.18-.26.42-.63.75-1.11.99-.48.24-1.02.36-1.63.36-.68,0-1.26-.15-1.72-.45-.47-.3-.82-.72-1.05-1.27-.22-.55-.34-1.22-.34-2,0-.68.05-1.2.15-1.55.17-.64.5-1.15,1.01-1.53.5-.37,1.12-.56,1.83-.56.94,0,1.65.24,2.11.71.47.47.75,1.17.85,2.08.04.38.05.81.04,1.29ZM120,272.98c-.26.2-.44.47-.53.81-.07.21-.11.47-.13.78,0,.04.02.06.06.06h3.21s.06-.02.06-.06c-.02-.31-.05-.54-.08-.69-.09-.36-.28-.66-.55-.88-.28-.22-.62-.33-1.03-.33s-.73.1-.99.3Z"/>
      <path d="M129.63,271.75c.06.03.09.08.07.17l-.22,1.05c0,.08-.06.11-.17.08-.16-.07-.35-.1-.56-.1h-.2c-.44.03-.8.18-1.08.47-.28.28-.43.66-.43,1.11v4.09c0,.09-.05.14-.14.14h-1.06c-.09,0-.14-.05-.14-.14v-6.85c0-.09.05-.14.14-.14h1.06c.09,0,.14.05.14.14v.74s0,.04.02.05c.01,0,.03,0,.03-.02.42-.65.99-.98,1.72-.98.3,0,.57.06.81.18Z"/>
    </g>
  </g>
  <g class="st4">
    <g class="st4">
      <path d="M212.46,278.59c-.42-.17-.75-.4-.99-.69s-.35-.62-.35-.97v-.15c0-.09.05-.14.14-.14h1.01c.09,0,.14.05.14.14v.07c0,.26.14.49.43.69.28.2.65.29,1.08.29s.76-.09,1.02-.27c.26-.18.39-.41.39-.69s-.12-.47-.36-.61c-.24-.14-.63-.28-1.18-.43-.53-.15-.98-.3-1.34-.45-.36-.15-.66-.37-.91-.66-.25-.29-.37-.65-.37-1.1,0-.62.25-1.12.73-1.49.49-.37,1.14-.55,1.95-.55.54,0,1.02.09,1.44.26.42.17.73.41.96.72.22.31.34.65.34,1.04v.04c0,.09-.05.14-.14.14h-.98c-.09,0-.14-.05-.14-.14v-.04c0-.27-.13-.5-.4-.68-.27-.18-.63-.27-1.08-.27-.41,0-.74.08-1,.24-.26.16-.38.37-.38.64s.12.48.37.62c.25.14.65.29,1.2.45.54.15.99.3,1.35.44.36.14.67.36.92.64.25.28.38.66.38,1.11,0,.63-.25,1.14-.75,1.51-.5.37-1.16.56-2,.56-.56,0-1.05-.08-1.48-.25Z"/>
    </g>
    <g class="st4">
      <path d="M224.3,275.22c0,.65-.07,1.22-.22,1.69-.2.62-.52,1.11-.97,1.45-.45.34-1.02.51-1.72.51-.32,0-.62-.06-.9-.19s-.53-.31-.73-.54c-.02-.02-.04-.02-.05-.01-.01,0-.02.02-.02.04v3.12c0,.09-.05.14-.14.14h-1.06c-.09,0-.14-.05-.14-.14v-9.52c0-.09.05-.14.14-.14h1.06c.09,0,.14.05.14.14v.46s0,.03.02.04c.01,0,.03,0,.05-.01.21-.23.45-.42.73-.55.28-.13.58-.2.91-.2.67,0,1.23.17,1.67.5.44.33.77.8.97,1.41.18.5.27,1.1.27,1.79ZM222.94,275.19c0-.72-.12-1.3-.35-1.74-.27-.51-.71-.77-1.33-.77-.54,0-.95.25-1.23.76-.22.4-.34.99-.34,1.76s.12,1.38.36,1.79c.27.48.67.71,1.19.71.56,0,.98-.22,1.25-.67.3-.45.45-1.06.45-1.85Z"/>
    </g>
    <g class="st4">
      <path d="M231.79,275.6c0,.09-.05.14-.14.14h-4.47s-.06.02-.06.06c0,.32.03.56.08.73.1.37.31.67.62.88.31.21.71.32,1.18.32.69,0,1.22-.29,1.6-.85.05-.09.11-.11.18-.04l.8.53c.06.06.08.12.04.18-.26.42-.63.75-1.11.99-.48.24-1.02.36-1.63.36-.68,0-1.26-.15-1.72-.45-.47-.3-.82-.72-1.05-1.27-.22-.55-.34-1.22-.34-2,0-.68.05-1.2.15-1.55.17-.64.5-1.15,1.01-1.53.5-.37,1.12-.56,1.83-.56.94,0,1.65.24,2.11.71.47.47.75,1.17.85,2.08.04.38.05.81.04,1.29ZM227.79,272.98c-.26.2-.44.47-.53.81-.07.21-.11.47-.13.78,0,.04.02.06.06.06h3.21s.06-.02.06-.06c-.02-.31-.05-.54-.08-.69-.09-.36-.28-.66-.55-.88-.28-.22-.62-.33-1.03-.33s-.73.1-.99.3Z"/>
      <path d="M239.29,275.6c0,.09-.05.14-.14.14h-4.47s-.06.02-.06.06c0,.32.03.56.08.73.1.37.31.67.62.88.31.21.71.32,1.18.32.69,0,1.22-.29,1.6-.85.05-.09.11-.11.18-.04l.8.53c.06.06.08.12.04.18-.26.42-.63.75-1.11.99-.48.24-1.02.36-1.63.36-.68,0-1.26-.15-1.72-.45-.47-.3-.82-.72-1.05-1.27-.22-.55-.34-1.22-.34-2,0-.68.05-1.2.15-1.55.17-.64.5-1.15,1.01-1.53.5-.37,1.12-.56,1.83-.56.94,0,1.65.24,2.11.71.47.47.75,1.17.85,2.08.04.38.05.81.04,1.29ZM235.29,272.98c-.26.2-.44.47-.53.81-.07.21-.11.47-.13.78,0,.04.02.06.06.06h3.21s.06-.02.06-.06c-.02-.31-.05-.54-.08-.69-.09-.36-.28-.66-.55-.88-.28-.22-.62-.33-1.03-.33s-.73.1-.99.3Z"/>
      <path d="M245.55,268.96h1.06c.09,0,.14.05.14.14v9.52c0,.09-.05.14-.14.14h-1.06c-.09,0-.14-.05-.14-.14v-.46s0-.03-.02-.04c-.01,0-.03,0-.05.01-.21.23-.45.42-.73.55-.28.13-.58.2-.91.2-.67,0-1.23-.17-1.67-.5s-.77-.8-.97-1.41c-.18-.49-.27-1.09-.27-1.79,0-.65.07-1.22.22-1.69.2-.62.52-1.1.97-1.44.45-.35,1.02-.52,1.72-.52.32,0,.62.06.9.19.28.13.53.31.73.54.02.02.04.02.05.01.01,0,.02-.02.02-.04v-3.12c0-.09.05-.14.14-.14ZM245.38,275.19c0-.78-.12-1.38-.35-1.79-.27-.48-.67-.71-1.19-.71-.56,0-.98.22-1.25.67-.3.47-.45,1.08-.45,1.85,0,.72.12,1.3.35,1.74.27.51.71.77,1.33.77.54,0,.95-.25,1.23-.76.21-.39.32-.98.32-1.76Z"/>
    </g>
  </g>
  <g class="st4">
    <g class="st4">
      <path d="M472.78,272.17c.41.42.62,1.01.62,1.77v4.68c0,.09-.05.14-.14.14h-1.05c-.09,0-.14-.05-.14-.14v-4.4c0-.47-.13-.84-.39-1.11-.26-.27-.6-.41-1.03-.41s-.78.13-1.05.41c-.27.27-.41.63-.41,1.09v4.42c0,.09-.05.14-.14.14h-1.05c-.09,0-.14-.05-.14-.14v-4.4c0-.47-.13-.84-.38-1.11-.26-.27-.6-.41-1.03-.41s-.77.13-1.03.41c-.26.27-.38.63-.38,1.09v4.42c0,.09-.05.14-.14.14h-1.06c-.09,0-.14-.05-.14-.14v-6.85c0-.09.05-.14.14-.14h1.06c.09,0,.14.05.14.14v.48s0,.03.02.04c.01,0,.03,0,.05-.01.41-.49,1.01-.74,1.79-.74.48,0,.88.09,1.22.27.34.18.6.45.79.8.03.04.06.04.08,0,.22-.36.52-.63.89-.81.37-.18.78-.27,1.22-.27.71,0,1.27.21,1.68.64Z"/>
    </g>
    <g class="st4">
      <path d="M479.35,271.82c.42.2.75.48.98.84.23.36.34.77.34,1.22v4.73c0,.09-.05.14-.14.14h-1.06c-.09,0-.14-.05-.14-.14v-.5s-.02-.06-.07-.03c-.24.25-.54.45-.89.58-.35.13-.74.2-1.17.2-.69,0-1.26-.18-1.71-.53-.45-.35-.68-.88-.68-1.59s.25-1.3.76-1.71c.51-.42,1.22-.62,2.14-.62h1.57s.06-.02.06-.06v-.38c0-.41-.12-.73-.36-.96-.24-.23-.6-.34-1.08-.34-.39,0-.71.08-.96.23-.25.15-.4.36-.45.62-.03.09-.08.13-.17.13l-1.13-.15c-.09-.02-.13-.06-.13-.11.08-.55.37-1,.88-1.35.51-.35,1.16-.53,1.93-.53.57,0,1.07.1,1.49.3ZM478.78,277.35c.37-.26.55-.59.55-.99v-.83s-.02-.06-.06-.06h-1.32c-.55,0-.99.11-1.32.32-.33.21-.49.51-.49.9,0,.35.12.61.37.78.25.18.57.27.97.27.49,0,.92-.13,1.29-.39Z"/>
    </g>
    <g class="st4">
      <path d="M485.76,272.74h-1.51s-.06.02-.06.06v3.71c0,.39.09.67.27.85.18.17.45.26.83.26h.41c.09,0,.14.05.14.14v.87c0,.09-.05.14-.14.14-.3.02-.51.03-.64.03-.71,0-1.24-.13-1.6-.39-.36-.26-.54-.73-.54-1.42v-4.19s-.02-.06-.06-.06h-.85c-.09,0-.14-.05-.14-.14v-.83c0-.09.05-.14.14-.14h.85s.06-.02.06-.06v-1.65c0-.09.05-.14.14-.14h1.01c.09,0,.14.05.14.14v1.65s.02.06.06.06h1.51c.09,0,.14.05.14.14v.83c0,.09-.05.14-.14.14Z"/>
    </g>
    <g class="st4">
      <path d="M493.2,275.6c0,.09-.05.14-.14.14h-4.47s-.06.02-.06.06c0,.32.03.56.08.73.1.37.31.67.62.88.31.21.71.32,1.18.32.69,0,1.22-.29,1.6-.85.05-.09.11-.11.18-.04l.8.53c.07.06.08.12.04.18-.26.42-.63.75-1.11.99-.48.24-1.02.36-1.63.36-.68,0-1.25-.15-1.72-.45-.47-.3-.82-.72-1.05-1.27-.22-.55-.34-1.22-.34-2,0-.68.05-1.2.15-1.55.17-.64.5-1.15,1.01-1.53.5-.37,1.12-.56,1.83-.56.94,0,1.65.24,2.11.71.47.47.75,1.17.85,2.08.04.38.05.81.04,1.29ZM489.2,272.98c-.26.2-.44.47-.53.81-.07.21-.11.47-.13.78,0,.04.02.06.06.06h3.21s.06-.02.06-.06c-.02-.31-.05-.54-.08-.69-.09-.36-.28-.66-.55-.88-.28-.22-.62-.33-1.03-.33s-.73.1-.99.3Z"/>
      <path d="M498.83,271.75c.06.03.09.08.07.17l-.22,1.05c0,.08-.07.11-.17.08-.16-.07-.35-.1-.56-.1h-.2c-.44.03-.8.18-1.08.47-.29.28-.43.66-.43,1.11v4.09c0,.09-.05.14-.14.14h-1.06c-.09,0-.14-.05-.14-.14v-6.85c0-.09.05-.14.14-.14h1.06c.09,0,.14.05.14.14v.74s0,.04.02.05c.01,0,.03,0,.04-.02.42-.65.99-.98,1.72-.98.3,0,.57.06.81.18Z"/>
      <path d="M500.26,270.26c-.17-.17-.25-.38-.25-.64s.08-.48.25-.64.38-.25.64-.25.48.08.64.25.25.38.25.64-.08.48-.25.64-.38.25-.64.25-.48-.08-.64-.25ZM500.2,278.61v-6.83c0-.09.05-.14.14-.14h1.06c.09,0,.14.05.14.14v6.83c0,.09-.05.14-.14.14h-1.06c-.09,0-.14-.05-.14-.14Z"/>
      <path d="M507.75,271.82c.42.2.75.48.98.84s.34.77.34,1.22v4.73c0,.09-.05.14-.14.14h-1.06c-.09,0-.14-.05-.14-.14v-.5s-.02-.06-.07-.03c-.24.25-.54.45-.89.58-.35.13-.74.2-1.17.2-.69,0-1.26-.18-1.71-.53-.45-.35-.68-.88-.68-1.59s.25-1.3.76-1.71,1.22-.62,2.13-.62h1.57s.06-.02.06-.06v-.38c0-.41-.12-.73-.36-.96-.24-.23-.6-.34-1.08-.34-.39,0-.71.08-.96.23-.25.15-.4.36-.45.62-.03.09-.08.13-.17.13l-1.13-.15c-.09-.02-.13-.06-.13-.11.08-.55.37-1,.88-1.35.51-.35,1.16-.53,1.93-.53.57,0,1.07.1,1.49.3ZM507.19,277.35c.36-.26.55-.59.55-.99v-.83s-.02-.06-.06-.06h-1.32c-.55,0-.99.11-1.32.32-.33.21-.49.51-.49.9,0,.35.12.61.37.78.25.18.57.27.97.27.49,0,.92-.13,1.29-.39Z"/>
      <path d="M510.9,278.62v-9.52c0-.09.05-.14.14-.14h1.06c.09,0,.14.05.14.14v9.52c0,.09-.05.14-.14.14h-1.06c-.09,0-.14-.05-.14-.14Z"/>
    </g>
  </g>
  <g>
    <line class="st0" x1="139.52" y1="264.1" x2="139.52" y2="282.19"/>
    <polygon class="st1" points="139.52 282.19 143.17 273.38 135.87 273.38 139.52 282.19"/>
  </g>
  <g>
    <line class="st0" x1="258.48" y1="282.19" x2="258.48" y2="264.1"/>
    <polygon class="st1" points="258.48 264.1 254.83 272.91 262.13 272.91 258.48 264.1"/>
  </g>
  <rect class="st2" y="91.83" width="49.3" height="49.3"/>
  <g class="st4">
    <g class="st4">
      <path d="M98.67,96.33h1.06c.09,0,.14.05.14.14v9.52c0,.09-.05.14-.14.14h-1.06c-.09,0-.14-.05-.14-.14v-4.16s-.02-.06-.06-.06h-3.99s-.06.02-.06.06v4.16c0,.09-.05.14-.14.14h-1.06c-.09,0-.14-.05-.14-.14v-9.52c0-.09.05-.14.14-.14h1.06c.09,0,.14.05.14.14v4.09s.02.06.06.06h3.99s.06-.02.06-.06v-4.09c0-.09.05-.14.14-.14Z"/>
    </g>
    <g class="st4">
      <path d="M107.98,106.02l-.5-1.64s-.03-.04-.06-.04h-3.93s-.05.01-.06.04l-.5,1.64c-.03.08-.08.11-.17.11h-1.13c-.1,0-.14-.05-.11-.15l3.07-9.53c.03-.07.08-.11.17-.11h1.4c.08,0,.14.04.17.11l3.09,9.53v.06c.01.07-.03.1-.11.1h-1.15c-.08,0-.14-.04-.17-.11ZM103.79,103.25s.03.02.05.02h3.22s.04,0,.05-.02c.01-.01.02-.03,0-.05l-1.62-5.19s-.02-.03-.04-.03-.03,0-.04.03l-1.62,5.19s0,.04,0,.05Z"/>
      <path d="M111.02,105.99v-9.52c0-.09.05-.14.14-.14h1.06c.09,0,.14.05.14.14v8.44s.02.06.06.06h4.83c.09,0,.14.05.14.14v.88c0,.09-.05.14-.14.14h-6.09c-.09,0-.14-.05-.14-.14Z"/>
    </g>
    <g class="st4">
      <path d="M125.35,97.49h-4.96s-.06.02-.06.06v3.01s.02.06.06.06h3.4c.09,0,.14.05.14.14v.88c0,.09-.05.14-.14.14h-3.4s-.06.02-.06.06v4.16c0,.09-.05.14-.14.14h-1.06c-.09,0-.14-.05-.14-.14v-9.52c0-.09.05-.14.14-.14h6.22c.09,0,.14.05.14.14v.88c0,.09-.05.14-.14.14Z"/>
    </g>
    <g class="st4">
      <path d="M125.6,102.29v-.88c0-.09.05-.14.14-.14h4.33c.09,0,.14.05.14.14v.88c0,.09-.05.14-.14.14h-4.33c-.09,0-.14-.05-.14-.14Z"/>
      <path d="M133.22,105.86c-.52-.27-.92-.64-1.2-1.13s-.43-1.05-.43-1.69v-3.63c0-.63.14-1.19.43-1.67.28-.48.69-.85,1.2-1.12.52-.27,1.11-.4,1.78-.4s1.26.13,1.78.38c.51.26.91.62,1.2,1.08.28.47.43,1.01.43,1.62h0c0,.06-.01.1-.04.13-.03.03-.06.04-.1.04l-1.06.06c-.09,0-.14-.04-.14-.13v-.04c0-.6-.19-1.08-.56-1.44-.37-.36-.87-.55-1.5-.55s-1.13.18-1.5.55-.57.84-.57,1.44v3.72c0,.6.19,1.08.57,1.44.38.36.88.55,1.5.55s1.12-.18,1.5-.55c.37-.36.56-.84.56-1.44v-.03c0-.08.05-.13.14-.13l1.06.06c.09,0,.14.05.14.14,0,.62-.14,1.16-.43,1.63-.28.47-.68.84-1.2,1.1-.51.26-1.11.39-1.78.39s-1.27-.13-1.78-.4Z"/>
      <path d="M141.9,105.84c-.52-.27-.92-.64-1.21-1.13s-.43-1.05-.43-1.69v-6.55c0-.09.05-.14.14-.14h1.06c.09,0,.14.05.14.14v6.58c0,.61.19,1.1.58,1.47.39.37.89.56,1.52.56s1.13-.19,1.51-.56c.38-.37.57-.86.57-1.47v-6.58c0-.09.05-.14.14-.14h1.06c.09,0,.14.05.14.14v6.55c0,.63-.14,1.2-.43,1.69s-.69.87-1.2,1.13-1.12.4-1.8.4-1.28-.13-1.8-.4Z"/>
      <path d="M155.7,96.47v.9c0,.09-.05.14-.14.14h-2.69s-.06.02-.06.06v8.43c0,.09-.05.14-.14.14h-1.06c-.09,0-.14-.05-.14-.14v-8.43s-.02-.06-.06-.06h-2.56c-.09,0-.14-.05-.14-.14v-.9c0-.09.05-.14.14-.14h6.71c.09,0,.14.05.14.14Z"/>
    </g>
  </g>
  <g class="st4">
    <g class="st4">
      <path d="M98.97,132.89c0,.65-.07,1.22-.22,1.69-.2.62-.52,1.11-.97,1.45-.45.34-1.02.51-1.72.51-.32,0-.62-.06-.9-.19s-.53-.31-.73-.54c-.02-.02-.04-.02-.05-.01-.01,0-.02.02-.02.04v3.12c0,.09-.05.14-.14.14h-1.06c-.09,0-.14-.05-.14-.14v-9.52c0-.09.05-.14.14-.14h1.06c.09,0,.14.05.14.14v.46s0,.03.02.04c.01,0,.03,0,.05-.01.21-.23.45-.42.73-.55.28-.13.58-.2.91-.2.67,0,1.23.17,1.67.5.44.33.77.8.97,1.41.18.5.27,1.1.27,1.79ZM97.61,132.86c0-.72-.12-1.3-.35-1.74-.27-.51-.71-.77-1.33-.77-.54,0-.95.25-1.23.76-.22.4-.34.99-.34,1.76s.12,1.38.36,1.79c.27.48.67.71,1.19.71.56,0,.98-.22,1.25-.67.3-.45.45-1.06.45-1.85Z"/>
    </g>
    <g class="st4">
      <path d="M101.76,136.02c-.51-.35-.87-.84-1.08-1.46-.17-.5-.25-1.07-.25-1.71s.08-1.22.24-1.68c.21-.62.56-1.1,1.08-1.45.51-.35,1.12-.53,1.83-.53.67,0,1.26.17,1.76.53.5.35.86.83,1.07,1.43.17.48.25,1.04.25,1.68s-.08,1.23-.25,1.72c-.21.62-.56,1.11-1.06,1.46s-1.1.53-1.78.53-1.29-.18-1.81-.53ZM104.54,135.06c.28-.21.48-.51.6-.89.1-.35.15-.79.15-1.32s-.05-.96-.14-1.3c-.12-.38-.32-.68-.6-.89-.28-.21-.62-.32-1.02-.32s-.71.11-.99.32c-.28.21-.48.51-.6.89-.1.33-.15.76-.15,1.3s.05.98.15,1.32c.11.38.31.68.59.89s.63.32,1.03.32c.37,0,.7-.11.98-.32Z"/>
    </g>
    <g class="st4">
      <path d="M109.53,136.32l-2.02-6.86v-.04c-.01-.08.03-.11.13-.11h1.09c.08,0,.14.04.15.13l1.33,5.08s.02.03.03.03.03,0,.04-.03l1.36-5.08c.02-.08.07-.13.15-.13h.97c.08,0,.14.04.15.13l1.39,5.07s.02.03.03.03.03,0,.04-.03l1.39-5.07c.02-.08.07-.13.15-.13h1.08s.08.03.1.06c.02.03.03.07.02.11l-2.03,6.85c-.03.08-.08.11-.15.11h-1.09c-.08,0-.13-.04-.15-.11l-1.37-4.73s-.02-.03-.03-.03-.03,0-.04.03l-1.3,4.72c-.02.08-.07.13-.15.13h-1.11c-.07,0-.13-.04-.15-.11Z"/>
    </g>
    <g class="st4">
      <path d="M124,133.27c0,.09-.05.14-.14.14h-4.47s-.06.02-.06.06c0,.32.03.56.08.73.1.37.31.67.62.88.31.21.71.32,1.18.32.69,0,1.22-.29,1.6-.85.05-.09.11-.11.18-.04l.8.53c.06.06.08.12.04.18-.26.42-.63.75-1.11.99-.48.24-1.02.36-1.63.36-.68,0-1.26-.15-1.72-.45-.47-.3-.82-.72-1.05-1.27-.22-.55-.34-1.22-.34-2,0-.68.05-1.2.15-1.55.17-.64.5-1.15,1.01-1.53.5-.37,1.12-.56,1.83-.56.94,0,1.65.24,2.11.71.47.47.75,1.17.85,2.08.04.38.05.81.04,1.29ZM120,130.65c-.26.2-.44.47-.53.81-.07.21-.11.47-.13.78,0,.04.02.06.06.06h3.21s.06-.02.06-.06c-.02-.31-.05-.54-.08-.69-.09-.36-.28-.66-.55-.88-.28-.22-.62-.33-1.03-.33s-.73.1-.99.3Z"/>
      <path d="M129.63,129.42c.06.03.09.08.07.17l-.22,1.05c0,.08-.06.11-.17.08-.16-.07-.35-.1-.56-.1h-.2c-.44.03-.8.18-1.08.47-.28.28-.43.66-.43,1.11v4.09c0,.09-.05.14-.14.14h-1.06c-.09,0-.14-.05-.14-.14v-6.85c0-.09.05-.14.14-.14h1.06c.09,0,.14.05.14.14v.74s0,.04.02.05c.01,0,.03,0,.03-.02.42-.65.99-.98,1.72-.98.3,0,.57.06.81.18Z"/>
    </g>
  </g>
  <g class="st4">
    <g class="st4">
      <path d="M94.03,163c-.51-.35-.87-.84-1.08-1.46-.17-.5-.25-1.07-.25-1.71s.08-1.22.24-1.68c.21-.62.56-1.1,1.08-1.45.51-.35,1.12-.53,1.83-.53.67,0,1.26.17,1.76.53.5.35.86.83,1.07,1.43.17.48.25,1.04.25,1.68s-.08,1.23-.25,1.72c-.21.62-.56,1.11-1.06,1.46s-1.1.53-1.78.53-1.29-.18-1.81-.53ZM96.81,162.04c.28-.21.48-.51.6-.89.1-.35.15-.79.15-1.32s-.05-.96-.14-1.3c-.12-.38-.32-.68-.6-.89-.28-.21-.62-.32-1.02-.32s-.71.11-.99.32c-.28.21-.48.51-.6.89-.1.33-.15.76-.15,1.3s.05.98.15,1.32c.11.38.31.68.59.89s.63.32,1.03.32c.37,0,.7-.11.98-.32Z"/>
      <path d="M104.62,156.4c.06.03.09.08.07.17l-.22,1.05c0,.08-.06.11-.17.08-.16-.07-.35-.1-.56-.1h-.2c-.44.03-.8.18-1.08.47-.28.28-.43.66-.43,1.11v4.09c0,.09-.05.14-.14.14h-1.06c-.09,0-.14-.05-.14-.14v-6.85c0-.09.05-.14.14-.14h1.06c.09,0,.14.05.14.14v.74s0,.04.02.05c.01,0,.03,0,.03-.02.42-.65.99-.98,1.72-.98.3,0,.57.06.81.18Z"/>
    </g>
  </g>
  <g class="st4">
    <g class="st4">
      <path d="M212.46,136.26c-.42-.17-.75-.4-.99-.69s-.35-.62-.35-.97v-.15c0-.09.05-.14.14-.14h1.01c.09,0,.14.05.14.14v.07c0,.26.14.49.43.69.28.2.65.29,1.08.29s.76-.09,1.02-.27c.26-.18.39-.41.39-.69s-.12-.47-.36-.61c-.24-.14-.63-.28-1.18-.43-.53-.15-.98-.3-1.34-.45-.36-.15-.66-.37-.91-.66-.25-.29-.37-.65-.37-1.1,0-.62.25-1.12.73-1.49.49-.37,1.14-.55,1.95-.55.54,0,1.02.09,1.44.26.42.17.73.41.96.72.22.31.34.65.34,1.04v.04c0,.09-.05.14-.14.14h-.98c-.09,0-.14-.05-.14-.14v-.04c0-.27-.13-.5-.4-.68-.27-.18-.63-.27-1.08-.27-.41,0-.74.08-1,.24-.26.16-.38.37-.38.64s.12.48.37.62c.25.14.65.29,1.2.45.54.15.99.3,1.35.44.36.14.67.36.92.64.25.28.38.66.38,1.11,0,.63-.25,1.14-.75,1.51-.5.37-1.16.56-2,.56-.56,0-1.05-.08-1.48-.25Z"/>
    </g>
    <g class="st4">
      <path d="M224.3,132.89c0,.65-.07,1.22-.22,1.69-.2.62-.52,1.11-.97,1.45-.45.34-1.02.51-1.72.51-.32,0-.62-.06-.9-.19s-.53-.31-.73-.54c-.02-.02-.04-.02-.05-.01-.01,0-.02.02-.02.04v3.12c0,.09-.05.14-.14.14h-1.06c-.09,0-.14-.05-.14-.14v-9.52c0-.09.05-.14.14-.14h1.06c.09,0,.14.05.14.14v.46s0,.03.02.04c.01,0,.03,0,.05-.01.21-.23.45-.42.73-.55.28-.13.58-.2.91-.2.67,0,1.23.17,1.67.5.44.33.77.8.97,1.41.18.5.27,1.1.27,1.79ZM222.94,132.86c0-.72-.12-1.3-.35-1.74-.27-.51-.71-.77-1.33-.77-.54,0-.95.25-1.23.76-.22.4-.34.99-.34,1.76s.12,1.38.36,1.79c.27.48.67.71,1.19.71.56,0,.98-.22,1.25-.67.3-.45.45-1.06.45-1.85Z"/>
    </g>
    <g class="st4">
      <path d="M231.79,133.27c0,.09-.05.14-.14.14h-4.47s-.06.02-.06.06c0,.32.03.56.08.73.1.37.31.67.62.88.31.21.71.32,1.18.32.69,0,1.22-.29,1.6-.85.05-.09.11-.11.18-.04l.8.53c.06.06.08.12.04.18-.26.42-.63.75-1.11.99-.48.24-1.02.36-1.63.36-.68,0-1.26-.15-1.72-.45-.47-.3-.82-.72-1.05-1.27-.22-.55-.34-1.22-.34-2,0-.68.05-1.2.15-1.55.17-.64.5-1.15,1.01-1.53.5-.37,1.12-.56,1.83-.56.94,0,1.65.24,2.11.71.47.47.75,1.17.85,2.08.04.38.05.81.04,1.29ZM227.79,130.65c-.26.2-.44.47-.53.81-.07.21-.11.47-.13.78,0,.04.02.06.06.06h3.21s.06-.02.06-.06c-.02-.31-.05-.54-.08-.69-.09-.36-.28-.66-.55-.88-.28-.22-.62-.33-1.03-.33s-.73.1-.99.3Z"/>
      <path d="M239.29,133.27c0,.09-.05.14-.14.14h-4.47s-.06.02-.06.06c0,.32.03.56.08.73.1.37.31.67.62.88.31.21.71.32,1.18.32.69,0,1.22-.29,1.6-.85.05-.09.11-.11.18-.04l.8.53c.06.06.08.12.04.18-.26.42-.63.75-1.11.99-.48.24-1.02.36-1.63.36-.68,0-1.26-.15-1.72-.45-.47-.3-.82-.72-1.05-1.27-.22-.55-.34-1.22-.34-2,0-.68.05-1.2.15-1.55.17-.64.5-1.15,1.01-1.53.5-.37,1.12-.56,1.83-.56.94,0,1.65.24,2.11.71.47.47.75,1.17.85,2.08.04.38.05.81.04,1.29ZM235.29,130.65c-.26.2-.44.47-.53.81-.07.21-.11.47-.13.78,0,.04.02.06.06.06h3.21s.06-.02.06-.06c-.02-.31-.05-.54-.08-.69-.09-.36-.28-.66-.55-.88-.28-.22-.62-.33-1.03-.33s-.73.1-.99.3Z"/>
      <path d="M245.55,126.63h1.06c.09,0,.14.05.14.14v9.52c0,.09-.05.14-.14.14h-1.06c-.09,0-.14-.05-.14-.14v-.46s0-.03-.02-.04c-.01,0-.03,0-.05.01-.21.23-.45.42-.73.55-.28.13-.58.2-.91.2-.67,0-1.23-.17-1.67-.5s-.77-.8-.97-1.41c-.18-.49-.27-1.09-.27-1.79,0-.65.07-1.22.22-1.69.2-.62.52-1.1.97-1.44.45-.35,1.02-.52,1.72-.52.32,0,.62.06.9.19.28.13.53.31.73.54.02.02.04.02.05.01.01,0,.02-.02.02-.04v-3.12c0-.09.05-.14.14-.14ZM245.38,132.86c0-.78-.12-1.38-.35-1.79-.27-.48-.67-.71-1.19-.71-.56,0-.98.22-1.25.67-.3.47-.45,1.08-.45,1.85,0,.72.12,1.3.35,1.74.27.51.71.77,1.33.77.54,0,.95-.25,1.23-.76.21-.39.32-.98.32-1.76Z"/>
    </g>
  </g>
  <g class="st4">
    <g class="st4">
      <path d="M472.78,129.84c.41.42.62,1.01.62,1.77v4.68c0,.09-.05.14-.14.14h-1.05c-.09,0-.14-.05-.14-.14v-4.4c0-.47-.13-.84-.39-1.11-.26-.27-.6-.41-1.03-.41s-.78.13-1.05.41c-.27.27-.41.63-.41,1.09v4.42c0,.09-.05.14-.14.14h-1.05c-.09,0-.14-.05-.14-.14v-4.4c0-.47-.13-.84-.38-1.11-.26-.27-.6-.41-1.03-.41s-.77.13-1.03.41c-.26.27-.38.63-.38,1.09v4.42c0,.09-.05.14-.14.14h-1.06c-.09,0-.14-.05-.14-.14v-6.85c0-.09.05-.14.14-.14h1.06c.09,0,.14.05.14.14v.48s0,.03.02.04c.01,0,.03,0,.05-.01.41-.49,1.01-.74,1.79-.74.48,0,.88.09,1.22.27.34.18.6.45.79.8.03.04.06.04.08,0,.22-.36.52-.63.89-.81.37-.18.78-.27,1.22-.27.71,0,1.27.21,1.68.64Z"/>
    </g>
    <g class="st4">
      <path d="M479.35,129.49c.42.2.75.48.98.84.23.36.34.77.34,1.22v4.73c0,.09-.05.14-.14.14h-1.06c-.09,0-.14-.05-.14-.14v-.5s-.02-.06-.07-.03c-.24.25-.54.45-.89.58-.35.13-.74.2-1.17.2-.69,0-1.26-.18-1.71-.53-.45-.35-.68-.88-.68-1.59s.25-1.3.76-1.71c.51-.42,1.22-.62,2.14-.62h1.57s.06-.02.06-.06v-.38c0-.41-.12-.73-.36-.96-.24-.23-.6-.34-1.08-.34-.39,0-.71.08-.96.23-.25.15-.4.36-.45.62-.03.09-.08.13-.17.13l-1.13-.15c-.09-.02-.13-.06-.13-.11.08-.55.37-1,.88-1.35.51-.35,1.16-.53,1.93-.53.57,0,1.07.1,1.49.3ZM478.78,135.02c.37-.26.55-.59.55-.99v-.83s-.02-.06-.06-.06h-1.32c-.55,0-.99.11-1.32.32-.33.21-.49.51-.49.9,0,.35.12.61.37.78.25.18.57.27.97.27.49,0,.92-.13,1.29-.39Z"/>
    </g>
    <g class="st4">
      <path d="M485.76,130.41h-1.51s-.06.02-.06.06v3.71c0,.39.09.67.27.85.18.17.45.26.83.26h.41c.09,0,.14.05.14.14v.87c0,.09-.05.14-.14.14-.3.02-.51.03-.64.03-.71,0-1.24-.13-1.6-.39-.36-.26-.54-.73-.54-1.42v-4.19s-.02-.06-.06-.06h-.85c-.09,0-.14-.05-.14-.14v-.83c0-.09.05-.14.14-.14h.85s.06-.02.06-.06v-1.65c0-.09.05-.14.14-.14h1.01c.09,0,.14.05.14.14v1.65s.02.06.06.06h1.51c.09,0,.14.05.14.14v.83c0,.09-.05.14-.14.14Z"/>
    </g>
    <g class="st4">
      <path d="M493.2,133.27c0,.09-.05.14-.14.14h-4.47s-.06.02-.06.06c0,.32.03.56.08.73.1.37.31.67.62.88.31.21.71.32,1.18.32.69,0,1.22-.29,1.6-.85.05-.09.11-.11.18-.04l.8.53c.07.06.08.12.04.18-.26.42-.63.75-1.11.99-.48.24-1.02.36-1.63.36-.68,0-1.25-.15-1.72-.45-.47-.3-.82-.72-1.05-1.27-.22-.55-.34-1.22-.34-2,0-.68.05-1.2.15-1.55.17-.64.5-1.15,1.01-1.53.5-.37,1.12-.56,1.83-.56.94,0,1.65.24,2.11.71.47.47.75,1.17.85,2.08.04.38.05.81.04,1.29ZM489.2,130.65c-.26.2-.44.47-.53.81-.07.21-.11.47-.13.78,0,.04.02.06.06.06h3.21s.06-.02.06-.06c-.02-.31-.05-.54-.08-.69-.09-.36-.28-.66-.55-.88-.28-.22-.62-.33-1.03-.33s-.73.1-.99.3Z"/>
      <path d="M498.83,129.42c.06.03.09.08.07.17l-.22,1.05c0,.08-.07.11-.17.08-.16-.07-.35-.1-.56-.1h-.2c-.44.03-.8.18-1.08.47-.29.28-.43.66-.43,1.11v4.09c0,.09-.05.14-.14.14h-1.06c-.09,0-.14-.05-.14-.14v-6.85c0-.09.05-.14.14-.14h1.06c.09,0,.14.05.14.14v.74s0,.04.02.05c.01,0,.03,0,.04-.02.42-.65.99-.98,1.72-.98.3,0,.57.06.81.18Z"/>
      <path d="M500.26,127.93c-.17-.17-.25-.38-.25-.64s.08-.48.25-.64.38-.25.64-.25.48.08.64.25.25.38.25.64-.08.48-.25.64-.38.25-.64.25-.48-.08-.64-.25ZM500.2,136.28v-6.83c0-.09.05-.14.14-.14h1.06c.09,0,.14.05.14.14v6.83c0,.09-.05.14-.14.14h-1.06c-.09,0-.14-.05-.14-.14Z"/>
      <path d="M507.75,129.49c.42.2.75.48.98.84s.34.77.34,1.22v4.73c0,.09-.05.14-.14.14h-1.06c-.09,0-.14-.05-.14-.14v-.5s-.02-.06-.07-.03c-.24.25-.54.45-.89.58-.35.13-.74.2-1.17.2-.69,0-1.26-.18-1.71-.53-.45-.35-.68-.88-.68-1.59s.25-1.3.76-1.71,1.22-.62,2.13-.62h1.57s.06-.02.06-.06v-.38c0-.41-.12-.73-.36-.96-.24-.23-.6-.34-1.08-.34-.39,0-.71.08-.96.23-.25.15-.4.36-.45.62-.03.09-.08.13-.17.13l-1.13-.15c-.09-.02-.13-.06-.13-.11.08-.55.37-1,.88-1.35.51-.35,1.16-.53,1.93-.53.57,0,1.07.1,1.49.3ZM507.19,135.02c.36-.26.55-.59.55-.99v-.83s-.02-.06-.06-.06h-1.32c-.55,0-.99.11-1.32.32-.33.21-.49.51-.49.9,0,.35.12.61.37.78.25.18.57.27.97.27.49,0,.92-.13,1.29-.39Z"/>
      <path d="M510.9,136.29v-9.52c0-.09.05-.14.14-.14h1.06c.09,0,.14.05.14.14v9.52c0,.09-.05.14-.14.14h-1.06c-.09,0-.14-.05-.14-.14Z"/>
    </g>
  </g>
  <g>
    <line class="st0" x1="139.52" y1="121.77" x2="139.52" y2="139.87"/>
    <polygon class="st1" points="139.52 139.87 143.17 131.06 135.87 131.06 139.52 139.87"/>
  </g>
  <g>
    <line class="st0" x1="258.48" y1="121.77" x2="258.48" y2="139.87"/>
    <polygon class="st1" points="258.48 139.87 262.13 131.06 254.83 131.06 258.48 139.87"/>
  </g>
  <g class="st4">
    <g class="st4">
      <path d="M98.97,183.72c0,.65-.07,1.22-.22,1.69-.2.62-.52,1.11-.97,1.45-.45.34-1.02.51-1.72.51-.32,0-.62-.06-.9-.19s-.53-.31-.73-.54c-.02-.02-.04-.02-.05-.01-.01,0-.02.02-.02.04v3.12c0,.09-.05.14-.14.14h-1.06c-.09,0-.14-.05-.14-.14v-9.52c0-.09.05-.14.14-.14h1.06c.09,0,.14.05.14.14v.46s0,.03.02.04c.01,0,.03,0,.05-.01.21-.23.45-.42.73-.55.28-.13.58-.2.91-.2.67,0,1.23.17,1.67.5.44.33.77.8.97,1.41.18.5.27,1.1.27,1.79ZM97.61,183.69c0-.72-.12-1.3-.35-1.74-.27-.51-.71-.77-1.33-.77-.54,0-.95.25-1.23.76-.22.4-.34.99-.34,1.76s.12,1.38.36,1.79c.27.48.67.71,1.19.71.56,0,.98-.22,1.25-.67.3-.45.45-1.06.45-1.85Z"/>
    </g>
    <g class="st4">
      <path d="M101.76,186.85c-.51-.35-.87-.84-1.08-1.46-.17-.5-.25-1.07-.25-1.71s.08-1.22.24-1.68c.21-.62.56-1.1,1.08-1.45.51-.35,1.12-.53,1.83-.53.67,0,1.26.17,1.76.53.5.35.86.83,1.07,1.43.17.48.25,1.04.25,1.68s-.08,1.23-.25,1.72c-.21.62-.56,1.11-1.06,1.46s-1.1.53-1.78.53-1.29-.18-1.81-.53ZM104.54,185.89c.28-.21.48-.51.6-.89.1-.35.15-.79.15-1.32s-.05-.96-.14-1.3c-.12-.38-.32-.68-.6-.89-.28-.21-.62-.32-1.02-.32s-.71.11-.99.32c-.28.21-.48.51-.6.89-.1.33-.15.76-.15,1.3s.05.98.15,1.32c.11.38.31.68.59.89s.63.32,1.03.32c.37,0,.7-.11.98-.32Z"/>
    </g>
    <g class="st4">
      <path d="M109.53,187.15l-2.02-6.86v-.04c-.01-.08.03-.11.13-.11h1.09c.08,0,.14.04.15.13l1.33,5.08s.02.03.03.03.03,0,.04-.03l1.36-5.08c.02-.08.07-.13.15-.13h.97c.08,0,.14.04.15.13l1.39,5.07s.02.03.03.03.03,0,.04-.03l1.39-5.07c.02-.08.07-.13.15-.13h1.08s.08.03.1.06c.02.03.03.07.02.11l-2.03,6.85c-.03.08-.08.11-.15.11h-1.09c-.08,0-.13-.04-.15-.11l-1.37-4.73s-.02-.03-.03-.03-.03,0-.04.03l-1.3,4.72c-.02.08-.07.13-.15.13h-1.11c-.07,0-.13-.04-.15-.11Z"/>
    </g>
    <g class="st4">
      <path d="M124,184.1c0,.09-.05.14-.14.14h-4.47s-.06.02-.06.06c0,.32.03.56.08.73.1.37.31.67.62.88.31.21.71.32,1.18.32.69,0,1.22-.29,1.6-.85.05-.09.11-.11.18-.04l.8.53c.06.06.08.12.04.18-.26.42-.63.75-1.11.99-.48.24-1.02.36-1.63.36-.68,0-1.26-.15-1.72-.45-.47-.3-.82-.72-1.05-1.27-.22-.55-.34-1.22-.34-2,0-.68.05-1.2.15-1.55.17-.64.5-1.15,1.01-1.53.5-.37,1.12-.56,1.83-.56.94,0,1.65.24,2.11.71.47.47.75,1.17.85,2.08.04.38.05.81.04,1.29ZM120,181.48c-.26.2-.44.47-.53.81-.07.21-.11.47-.13.78,0,.04.02.06.06.06h3.21s.06-.02.06-.06c-.02-.31-.05-.54-.08-.69-.09-.36-.28-.66-.55-.88-.28-.22-.62-.33-1.03-.33s-.73.1-.99.3Z"/>
      <path d="M129.63,180.25c.06.03.09.08.07.17l-.22,1.05c0,.08-.06.11-.17.08-.16-.07-.35-.1-.56-.1h-.2c-.44.03-.8.18-1.08.47-.28.28-.43.66-.43,1.11v4.09c0,.09-.05.14-.14.14h-1.06c-.09,0-.14-.05-.14-.14v-6.85c0-.09.05-.14.14-.14h1.06c.09,0,.14.05.14.14v.74s0,.04.02.05c.01,0,.03,0,.03-.02.42-.65.99-.98,1.72-.98.3,0,.57.06.81.18Z"/>
    </g>
  </g>
  <g class="st4">
    <g class="st4">
      <path d="M212.46,187.09c-.42-.17-.75-.4-.99-.69s-.35-.62-.35-.97v-.15c0-.09.05-.14.14-.14h1.01c.09,0,.14.05.14.14v.07c0,.26.14.49.43.69.28.2.65.29,1.08.29s.76-.09,1.02-.27c.26-.18.39-.41.39-.69s-.12-.47-.36-.61c-.24-.14-.63-.28-1.18-.43-.53-.15-.98-.3-1.34-.45-.36-.15-.66-.37-.91-.66-.25-.29-.37-.65-.37-1.1,0-.62.25-1.12.73-1.49.49-.37,1.14-.55,1.95-.55.54,0,1.02.09,1.44.26.42.17.73.41.96.72.22.31.34.65.34,1.04v.04c0,.09-.05.14-.14.14h-.98c-.09,0-.14-.05-.14-.14v-.04c0-.27-.13-.5-.4-.68-.27-.18-.63-.27-1.08-.27-.41,0-.74.08-1,.24-.26.16-.38.37-.38.64s.12.48.37.62c.25.14.65.29,1.2.45.54.15.99.3,1.35.44.36.14.67.36.92.64.25.28.38.66.38,1.11,0,.63-.25,1.14-.75,1.51-.5.37-1.16.56-2,.56-.56,0-1.05-.08-1.48-.25Z"/>
    </g>
    <g class="st4">
      <path d="M224.3,183.72c0,.65-.07,1.22-.22,1.69-.2.62-.52,1.11-.97,1.45-.45.34-1.02.51-1.72.51-.32,0-.62-.06-.9-.19s-.53-.31-.73-.54c-.02-.02-.04-.02-.05-.01-.01,0-.02.02-.02.04v3.12c0,.09-.05.14-.14.14h-1.06c-.09,0-.14-.05-.14-.14v-9.52c0-.09.05-.14.14-.14h1.06c.09,0,.14.05.14.14v.46s0,.03.02.04c.01,0,.03,0,.05-.01.21-.23.45-.42.73-.55.28-.13.58-.2.91-.2.67,0,1.23.17,1.67.5.44.33.77.8.97,1.41.18.5.27,1.1.27,1.79ZM222.94,183.69c0-.72-.12-1.3-.35-1.74-.27-.51-.71-.77-1.33-.77-.54,0-.95.25-1.23.76-.22.4-.34.99-.34,1.76s.12,1.38.36,1.79c.27.48.67.71,1.19.71.56,0,.98-.22,1.25-.67.3-.45.45-1.06.45-1.85Z"/>
    </g>
    <g class="st4">
      <path d="M231.79,184.1c0,.09-.05.14-.14.14h-4.47s-.06.02-.06.06c0,.32.03.56.08.73.1.37.31.67.62.88.31.21.71.32,1.18.32.69,0,1.22-.29,1.6-.85.05-.09.11-.11.18-.04l.8.53c.06.06.08.12.04.18-.26.42-.63.75-1.11.99-.48.24-1.02.36-1.63.36-.68,0-1.26-.15-1.72-.45-.47-.3-.82-.72-1.05-1.27-.22-.55-.34-1.22-.34-2,0-.68.05-1.2.15-1.55.17-.64.5-1.15,1.01-1.53.5-.37,1.12-.56,1.83-.56.94,0,1.65.24,2.11.71.47.47.75,1.17.85,2.08.04.38.05.81.04,1.29ZM227.79,181.48c-.26.2-.44.47-.53.81-.07.21-.11.47-.13.78,0,.04.02.06.06.06h3.21s.06-.02.06-.06c-.02-.31-.05-.54-.08-.69-.09-.36-.28-.66-.55-.88-.28-.22-.62-.33-1.03-.33s-.73.1-.99.3Z"/>
      <path d="M239.29,184.1c0,.09-.05.14-.14.14h-4.47s-.06.02-.06.06c0,.32.03.56.08.73.1.37.31.67.62.88.31.21.71.32,1.18.32.69,0,1.22-.29,1.6-.85.05-.09.11-.11.18-.04l.8.53c.06.06.08.12.04.18-.26.42-.63.75-1.11.99-.48.24-1.02.36-1.63.36-.68,0-1.26-.15-1.72-.45-.47-.3-.82-.72-1.05-1.27-.22-.55-.34-1.22-.34-2,0-.68.05-1.2.15-1.55.17-.64.5-1.15,1.01-1.53.5-.37,1.12-.56,1.83-.56.94,0,1.65.24,2.11.71.47.47.75,1.17.85,2.08.04.38.05.81.04,1.29ZM235.29,181.48c-.26.2-.44.47-.53.81-.07.21-.11.47-.13.78,0,.04.02.06.06.06h3.21s.06-.02.06-.06c-.02-.31-.05-.54-.08-.69-.09-.36-.28-.66-.55-.88-.28-.22-.62-.33-1.03-.33s-.73.1-.99.3Z"/>
      <path d="M245.55,177.46h1.06c.09,0,.14.05.14.14v9.52c0,.09-.05.14-.14.14h-1.06c-.09,0-.14-.05-.14-.14v-.46s0-.03-.02-.04c-.01,0-.03,0-.05.01-.21.23-.45.42-.73.55-.28.13-.58.2-.91.2-.67,0-1.23-.17-1.67-.5s-.77-.8-.97-1.41c-.18-.49-.27-1.09-.27-1.79,0-.65.07-1.22.22-1.69.2-.62.52-1.1.97-1.44.45-.35,1.02-.52,1.72-.52.32,0,.62.06.9.19.28.13.53.31.73.54.02.02.04.02.05.01.01,0,.02-.02.02-.04v-3.12c0-.09.05-.14.14-.14ZM245.38,183.69c0-.78-.12-1.38-.35-1.79-.27-.48-.67-.71-1.19-.71-.56,0-.98.22-1.25.67-.3.47-.45,1.08-.45,1.85,0,.72.12,1.3.35,1.74.27.51.71.77,1.33.77.54,0,.95-.25,1.23-.76.21-.39.32-.98.32-1.76Z"/>
    </g>
  </g>
  <g>
    <line class="st0" x1="139.52" y1="190.7" x2="139.52" y2="172.6"/>
    <polygon class="st1" points="139.52 172.6 135.87 181.42 143.17 181.42 139.52 172.6"/>
  </g>
  <g>
    <line class="st0" x1="258.48" y1="190.7" x2="258.48" y2="172.6"/>
    <polygon class="st1" points="258.48 172.6 254.83 181.42 262.13 181.42 258.48 172.6"/>
  </g>
  <polygon class="st0" points="447.65 136.43 332.87 136.43 332.87 121.77 387.52 121.77 390.26 127.77 392.48 121.77 447.65 121.77 447.65 136.43"/>
  <polygon class="st0" points="417.71 264.1 417.71 266.16 362.82 266.16 362.82 264.1 332.87 264.1 332.87 278.76 447.65 278.76 447.65 264.1 417.71 264.1"/>
</svg>